<svg width="402" height="294" viewBox="0 0 402 294" fill="none" xmlns="http://www.w3.org/2000/svg">
<path fill-rule="evenodd" clip-rule="evenodd" d="M64.8403 38.5137C99.7307 15.9046 118.505 6.66818 139.034 2.0099C148.996 -0.250642 162.589 0.582192 170.372 3.93052C180.548 8.30957 183.484 13.0334 185.601 28.4384C186.037 31.6095 186.66 34.2051 186.986 34.2051C188.17 34.2051 195.523 30.1053 203.241 25.1423C215.095 17.5205 233.348 9.09747 245.672 5.56218C254.891 2.918 258.554 2.47973 268.493 2.82938C288.685 3.54202 293.764 7.89801 297.301 27.5424C298.453 33.9441 299.751 39.0018 300.184 38.782C314.442 31.5366 326.886 27.3688 339.862 25.4919C354.388 23.3916 370.649 26.1936 385.917 33.4257C400.452 40.3117 403.933 45.0428 398.971 51.1713C397.264 53.2777 394.845 54.0583 387.444 54.8875C375.77 56.1975 368.764 59.235 362.474 65.7155C355.856 72.5348 351.852 79.9975 342.901 102.191C334.381 123.318 329.045 133.611 321.412 143.646C311.707 156.408 298.302 166.255 286.918 168.986C279.734 170.71 272.024 168.88 269.365 164.821C268.344 163.264 266.425 155.5 265.1 147.57C263.774 139.639 262.548 132.699 262.376 132.149C261.696 129.981 246.794 141.169 226.472 159.107C205.927 177.241 191.949 185.021 178.545 185.777C168.428 186.349 163.077 184.127 160.333 178.216C159.366 176.131 157.611 167.598 156.434 159.251C155.256 150.905 153.956 143.408 153.545 142.591C153.015 141.537 149.731 142.658 142.244 146.447C131.256 152.008 125.426 155.931 100.069 174.823C82.5957 187.84 68.5808 195.125 56.7366 197.347C48.6134 198.87 48.458 198.97 48.7943 202.447C49.1622 206.247 60.9602 281.588 62.0079 286.83C62.4086 288.829 61.9023 290.704 60.6167 291.99C58.1764 294.43 56.3117 294.536 53.3907 292.4C51.1726 290.778 49.5021 281.22 38.7166 208.42C37.0351 197.069 35.1291 184.503 34.4808 180.497C31.4724 161.882 29.23 147.185 23.5532 108.869C20.1903 86.1661 17.3142 67.1906 17.1612 66.7013C17.0095 66.2109 14.4321 64.5719 11.4322 63.0592C4.37253 59.496 0.496094 53.7026 0.496094 46.7121C0.496094 36.8007 6.32471 29.8163 15.8525 28.3109C29.2142 26.1985 39.0711 34.9189 37.8376 47.7611C37.528 50.9892 37.4406 53.6297 37.6458 53.6297C39.4826 53.6297 53.7573 45.6948 64.8403 38.5137ZM209.589 35.2345C208.773 32.8768 225.175 24.4216 239.94 19.0373C243.279 17.8209 245.525 14.8484 246.013 14.8241C247.208 14.7658 247.613 16.8576 251.18 41.4893C252.872 53.1745 255.053 67.9251 256.025 74.2685C259.482 96.8205 262.816 117.745 262.816 118.812C262.816 119.408 259.932 122.233 257.095 123.805C250.698 127.351 234.901 139.367 229.799 144.392C226.023 148.111 225.982 148.12 225.311 145.4C224.94 143.891 222.837 117.61 218.436 88.2299C214.036 58.8501 209.884 36.0868 209.589 35.2345ZM19.2456 56.7928C24.9495 56.7928 29.5734 52.1689 29.5734 46.465C29.5734 40.7611 24.9495 36.1372 19.2456 36.1372C13.5417 36.1372 8.91782 40.7611 8.91782 46.465C8.91782 52.1689 13.5417 56.7928 19.2456 56.7928Z" fill="#E8E0CA"/>
<path d="M45.3125 122.181L111.533 38.1172L178.387 38.9674L184.785 77.7078L190.343 116.432L155.284 122.974L132.02 140.554L77.2164 151.756L45.3125 122.181Z" fill="#F6B51E"/>
<path d="M207.695 32.8454L246.728 14.6328L264.117 118.779L225.209 148.363L207.695 32.8454Z" fill="white"/>
<path d="M335.571 35.0422C321.762 37.3501 300.767 47.6209 301.239 51.8385C301.387 53.1569 303.23 65.7089 305.334 79.7311C307.438 93.7533 309.173 108.231 309.189 111.903C309.229 120.942 305.261 128.909 296.86 136.666C282.93 149.526 275.926 156.96 276.394 158.384C277.978 163.215 292.651 158.67 302.792 150.207C315.432 139.659 323.346 126.894 334.101 99.7057C341.351 81.3761 344.117 75.7891 350.375 66.8222C358.896 54.6125 370.091 47.5954 382.919 46.4202L390.81 45.6978C390.81 45.6978 386.068 43.2173 382.919 41.87C365.743 34.5211 349.38 32.7343 335.571 35.0422Z" fill="#CE3321"/>
<path d="M116.904 56.4542C97.796 63.5625 82.8245 90.6016 87.7887 109.037C89.4531 115.219 97.8312 123.315 104.472 125.159C120.261 129.542 139.46 120.91 149.619 104.858C159.899 88.6179 156.276 68.8435 141.192 58.8605C135.263 54.9367 123.985 53.8198 116.904 56.4542Z" fill="#122368"/>
<path d="M135.853 12.2194C118.307 16.9639 103.939 24.1947 74.552 43.0658C55.9201 55.0302 45.7719 60.2469 36.4299 62.6641C32.4891 63.6839 28.9805 64.8032 28.6333 65.1504C28.2849 65.4976 30.2783 80.6671 33.0609 98.8583C41.0044 150.785 46.629 188.106 46.629 188.887C46.629 190.221 53.4447 189.61 60.066 187.681C69.8209 184.839 80.5275 178.593 98.2088 165.43C121.524 148.072 127.998 143.909 142.701 136.818C163.538 126.769 178.668 124.479 191.247 129.473C193.375 130.317 193.078 127.445 187.891 97.0287L185.872 85.1894L181.505 88.471C171.533 95.964 162.342 104.964 147.872 121.403L132.564 138.794L123.286 138.033C94.0908 135.636 75.9154 132.312 55.9747 125.72L46.504 122.588L49.5792 118.764C51.2715 116.66 61.3821 103.466 72.0499 89.4434C82.7164 75.4212 95.8827 58.5812 101.308 52.0218L111.172 40.095L116.232 40.9291C144.772 45.6359 167.947 56.7298 180.477 71.6844C182.648 74.2739 184.135 73.7804 184.135 73.7804C184.135 73.7804 175.207 19.2706 174.068 17.1411C170.464 10.4081 151.557 7.97269 135.853 12.2194Z" fill="#0D612B"/>
<path d="M198.929 38.0178C193.622 41.4074 189.103 44.3417 188.888 44.5408C188.536 44.865 193.083 74.6479 199.689 115.299C201.059 123.73 201.774 132.047 201.331 134.408C200.086 141.044 192.914 151.774 182.696 162.286C177.505 167.628 172.571 173.297 171.734 174.885L170.21 177.771L177.478 177.245C189.024 176.41 202.012 169.029 220.293 152.911L226.795 147.177L223.357 124.381C212.755 54.0869 209.426 32.7015 209.027 32.3009C208.781 32.0569 204.238 34.6282 198.929 38.0178Z" fill="#137D2D"/>
<path d="M255.532 12.4586C252.574 13.0389 246.906 14.2169 246.261 14.8615C245.903 15.2196 246.699 19.6173 248.152 27.6419C249.753 36.4863 252.152 49.7364 254.682 66.8397C258.813 94.7542 263.308 118.78 263.308 118.78C263.308 118.78 266.613 119.287 273.274 117.15C280.951 114.688 291.96 114.614 291.96 114.614C291.96 114.614 301.142 114.998 300.779 112.601C300.57 111.216 297.343 89.5952 293.609 64.5555C288.607 31.0225 286.283 18.4256 284.789 16.7369C280.143 11.4873 268.876 9.83988 255.532 12.4586Z" fill="#CE3321"/>
<path fill-rule="evenodd" clip-rule="evenodd" d="M270.939 126.863L277.456 124.944C281.041 123.889 286.569 122.981 289.741 122.928C294.683 122.844 295.508 123.168 295.508 125.197C295.508 126.549 289.831 132.178 289.831 132.178C289.831 132.178 281.853 138.852 279.043 141.37C274.012 145.878 273.921 145.906 273.226 143.14C272.839 141.596 272.165 137.301 271.729 133.597L270.939 126.863Z" fill="#CE3321"/>
<path d="M170.218 136.191C167.08 136.735 164.022 137.483 163.422 137.853C162.649 138.332 165.514 162.69 166.748 166.127C166.972 166.751 180.932 152.568 184.458 148.133C188.895 142.55 189.635 139.687 187.154 137.685C184.842 135.816 176.589 135.089 170.218 136.191Z" fill="#137D2D"/>
</svg>
