<svg width="390" height="390" viewBox="0 0 390 390" fill="none" xmlns="http://www.w3.org/2000/svg">
<circle cx="194.75" cy="189.883" r="146.481" fill="white"/>
<path d="M289.658 313.725C289.658 313.496 290.585 312.624 291.71 311.792C293.58 310.421 293.62 310.461 292.154 312.212C290.625 314.05 289.658 314.629 289.658 313.725ZM269.659 289.312C273.177 285.968 276.315 283.242 276.639 283.242C276.964 283.242 274.349 285.968 270.839 289.312C267.321 292.648 264.183 295.382 263.858 295.382C263.541 295.382 266.148 292.648 269.659 289.312ZM187.338 283.924C187.338 283.694 188.257 282.83 189.391 281.998C191.261 280.62 191.3 280.659 189.834 282.41C188.297 284.249 187.338 284.835 187.338 283.924ZM159.874 234.551C158.955 222.348 152.957 204.48 146.222 193.846C140.588 184.956 125.873 170.891 116.769 165.701C100.343 156.343 77.1184 154.925 58.8778 162.175L54.5039 163.91L56.7939 158.253C59.3057 152.04 68.2992 136.946 72.9584 131.098C75.708 127.659 76.2626 127.445 80.7554 128.095C97.015 130.44 130.049 143.649 155.58 158.007C171.879 167.167 194.771 177.682 205.563 180.962C224.572 186.739 248.7 188.949 268.343 186.723C279.191 185.495 277.107 187.23 256.862 196.311C211.395 216.699 189.082 227.57 175.952 235.724C168.076 240.612 161.412 244.614 161.134 244.614C160.857 244.614 160.294 240.09 159.874 234.551ZM322.589 200.051C322.589 199.821 323.517 198.957 324.642 198.117C326.512 196.746 326.551 196.786 325.085 198.537C323.556 200.375 322.589 200.962 322.589 200.051Z" fill="#F4BB0D"/>
<path d="M77.2328 257.882C69.7449 256.092 62.0192 252.423 57.3758 248.461C55.1889 246.591 53.0494 245.062 52.6216 245.062C52.1937 245.062 51.1715 241.956 50.3554 238.16C49.5313 234.373 48.4061 229.278 47.8514 226.853C47.2968 224.42 46.7817 215.736 46.7025 207.535C46.5678 191.711 48.3269 180 52.265 170.634C54.3886 165.594 55.0383 165.024 60.9019 163.13C73.3026 159.128 80.7272 158.185 91.3689 159.279C105.79 160.753 118.112 166.339 128.23 175.966C138.896 186.125 150.742 191.964 150.227 208.343C149.846 220.173 139.997 220.72 135.203 229.793C127.478 244.404 116.654 252.716 99.6017 257.13C89.9426 259.634 85.22 259.792 77.2328 257.882ZM74.8399 245.062C74.8716 245.577 56.837 229.357 77.1219 240.323C81.6464 242.764 77.5419 240.577 77.9222 239.816C78.3184 239.016 77.8113 238.437 76.7099 238.437C75.6639 238.437 74.3724 237.328 73.8335 235.973L72.8668 233.509L83.2549 243.255C84.3009 244.23 70.4422 238.437 69.5151 238.437C67.5817 238.437 67.8669 237.376 69.6181 238.39C70.2599 238.77 70.1807 242.899 70.1807 244.143C70.1807 245.751 68.6118 240.418 69.935 239.943C70.9572 239.571 74.6418 241.385 74.6655 241.9L74.8399 245.062ZM92.296 234.396C93.9917 232.804 100.069 232.51 98.4131 233.469C96.7254 234.444 94.1739 233.881 95.3387 233.881C95.8775 233.881 91.5194 235.125 92.296 234.396ZM107.034 234.658C107.383 233.794 105.299 232.582 106.115 231.869C108.453 229.816 109.903 228.121 109.356 229.46C108.571 231.377 108.556 224.919 110.14 224.919C110.679 224.919 106.678 235.521 107.034 234.658ZM96.139 228.2C95.9964 226.885 98.8569 226.528 98.3498 227.946C98.0883 228.675 94.0392 229.69 94.8157 229.444C95.5923 229.198 96.1866 228.644 96.139 228.2ZM107.161 225.102C106.789 224.523 105.972 224.349 105.362 224.706C104.752 225.054 104.554 224.238 104.934 224.816C105.315 225.387 105.164 224.08 105.774 223.723C106.384 223.366 107.541 225.68 107.161 225.102ZM81.0283 222.851C81.9 221.536 88.1915 221.536 86.6225 222.447C85.3072 223.208 84.8555 223.533 86.5037 223.533C87.0742 223.533 80.6559 223.414 81.0283 222.851ZM58.8814 221.243C60.4106 217.487 58.6991 216.29 54.967 218.509C53.5645 219.341 59.856 214.191 61.1317 215.633C63.081 217.844 57.978 223.454 58.8814 221.243ZM109.102 210.363C109.427 211.243 84.5703 234.452 97.28 213.026C98.0486 211.734 92.3673 224.595 90.4894 224.595C89.1582 224.595 101.725 213.05 101.02 211.679C100.061 209.809 108.841 222.368 108.785 223.763C108.738 224.785 104.451 225.601 103.326 226.663C101.852 228.041 95.8934 216.869 96.9472 217.194C97.7475 217.447 103.928 214.777 103.928 216.18C103.928 218.517 98.9044 223.113 101.337 221.504C102.85 220.506 105.838 201.544 109.102 210.363ZM123.104 194.682C123.104 193.121 124.284 200.522 120.552 201.156C117.216 201.719 112.977 195.055 116.242 197.535C118.571 199.302 118.983 199.318 120.948 197.741C122.137 196.79 123.104 195.411 123.104 194.682ZM89.8554 186.917C74.9508 188.272 78.7146 189.262 77.9064 188.549C76.702 187.48 86.6305 183.605 85.5211 184.849C84.7367 185.744 84.4039 179.405 84.7842 179.984C85.6558 181.307 91.4323 186.774 89.8554 186.917Z" fill="#0357B9"/>
<path d="M166.76 340.552C155.017 338.627 144.335 335.671 143.266 334.047C142.949 333.579 145.421 329.522 148.749 325.045C173.535 291.686 207.567 265.023 262.027 236.283C286.346 223.447 305.165 212.567 315.814 205.19C325.434 198.518 342.589 182.703 342.589 180.5C342.589 179.953 343.983 180.357 344.189 179.501C345.608 173.63 346.067 181.157 346.527 185.302C347.438 193.376 347.446 219.508 346.368 221.093C345.885 221.814 338.088 226.228 329.039 230.911C301.108 245.372 271.005 265.498 253.414 281.465C235.031 298.144 218.803 320.711 213.859 336.464C212.464 340.893 212.052 341.234 207.211 341.955C198.502 343.254 179.145 342.581 166.76 340.552ZM237.273 336.495C238.787 330.687 247.424 313.5 253.906 305.442C269.983 285.45 296.876 260.276 331.02 245.792L341.677 241.267L340.869 244.318C339.269 250.372 333.08 263.699 328.278 271.465C314.546 293.628 293.477 314.943 270.831 326.828C264.531 330.133 238.763 339.53 237.091 339.53C236.758 339.53 236.838 338.159 237.273 336.495Z" fill="#BF2816"/>
<path d="M83.4792 295.563C71.546 282.64 66.3876 275.849 61.5462 266.681C56.0946 256.372 51.586 245.81 52.3308 245.113C52.6398 244.819 54.6921 246.103 56.8949 247.965C62.4812 252.688 70.5793 256.238 79.6362 257.925C86.419 259.193 88.4078 259.13 96.1177 257.426C114.794 253.29 126.616 244.708 134.699 229.416C139.532 220.264 139.706 219.574 140.079 207.736C140.412 197.332 140.087 194.551 137.932 189.147C134.223 179.844 122.139 169.995 109.445 164.512C102.465 161.493 100 159.338 101.641 159.623C115.523 162.008 138.93 179.607 148.066 194.59C154.318 204.844 159.056 223.195 159.841 234.899L160.855 245.002L151.877 251.38C135.84 262.759 117.124 278.654 104.247 291.483L91.4743 304.216L83.4792 295.563ZM230.355 173.933C210.561 171.025 192.344 164.005 162.384 147.761C151.196 141.699 138.7 135.162 134.611 133.237C125.158 128.776 100.579 119.56 91.7675 117.167C88.0433 116.161 85.0006 114.964 85.0006 114.521C85.0006 112.754 107.694 93.3799 110.555 92.7064C114.636 91.7476 127.116 95.5748 143.288 102.746C155.926 108.348 161.513 111.248 178.414 120.986C189.04 127.112 209.769 136.866 219.317 140.233C235.664 146.01 259.95 148.11 277.374 145.241C287.541 143.577 302.089 137.967 310.575 132.444C314.656 129.798 318.356 127.642 318.808 127.65C319.806 127.682 329.632 141.549 329.632 142.919C329.632 143.918 321.304 151.342 314.275 156.596C307.524 161.643 289.656 169.369 279.062 171.818C267.604 174.472 241.622 175.597 230.355 173.933ZM54.9298 163.648C55.4369 162.634 64.8266 160.106 65.7616 159.829C71.4985 158.109 68.1308 161.12 66.4906 161.628C60.5953 163.458 53.3054 166.889 54.9298 163.648ZM72.069 158.529C73.733 158.252 76.332 157.658 77.9484 157.666C80.587 157.689 85.9831 159.005 83.0751 158.886C81.0862 158.799 65.5556 161.667 61.6254 162.475C59.8188 162.84 61.1421 160.368 72.069 158.529ZM79.6758 158.006L78.717 157.777L84.6282 157.642C87.5362 157.618 94.2397 158.07 96.1731 158.529C99.2713 159.274 107.702 160.162 105.206 162.23C92.5995 158.165 78.9706 158.941 82.2273 158.799L79.6758 158.006ZM244.364 133.054C235.164 132.222 218.009 127.175 207.558 122.223C203.77 120.432 193.034 114.639 183.707 109.354C165.443 99.0138 151.624 92.2151 136.41 86.1059C131.133 83.9903 126.585 82.041 126.307 81.7795C125.063 80.6068 149.603 70.9556 159.968 68.5309C176.98 64.5611 176.79 64.5215 187.455 74.0855C206.409 91.082 227.55 103.245 244.99 107.191C249.174 108.142 257.89 109.204 264.363 109.552C275.663 110.17 278.206 109.877 296.304 105.9C298.151 105.487 300.337 106.621 304.244 110.004C307.215 112.571 309.64 115.305 309.64 116.09C309.64 116.874 307.921 118.506 305.821 119.711C287.002 130.511 266.194 135.035 244.364 133.054ZM253.183 95.9631C237.05 93.4354 219.768 84.4181 206.139 71.4231L200.846 66.3757L206.734 66.0112C219.182 65.2426 238.294 69.6482 256.297 77.4531C269.086 82.9998 285.156 92.2706 284.609 93.7999C284.363 94.4972 282.612 95.3847 280.726 95.7729C276.907 96.5495 257.755 96.6842 253.183 95.9631Z" fill="#0A841A"/>
<path d="M289.658 307.495C289.658 307.265 290.585 306.393 291.71 305.561C293.58 304.191 293.62 304.23 292.154 305.981C290.625 307.82 289.658 308.398 289.658 307.495ZM269.659 283.082C273.177 279.738 276.315 277.012 276.639 277.012C276.964 277.012 274.349 279.738 270.839 283.082C267.321 286.418 264.183 289.151 263.858 289.151C263.541 289.151 266.148 286.418 269.659 283.082ZM187.338 277.693C187.338 277.464 188.257 276.6 189.391 275.768C191.261 274.389 191.3 274.429 189.834 276.18C188.297 278.018 187.338 278.605 187.338 277.693ZM159.874 228.32C158.955 216.118 152.957 198.25 146.222 187.616C140.588 178.725 125.873 164.661 116.769 159.471C100.343 150.113 77.1184 148.694 58.8778 155.944L54.5039 157.68L56.7939 152.014C59.3057 145.81 68.2992 130.715 72.9584 124.867C75.708 121.428 76.2626 121.214 80.7554 121.864C97.015 124.21 130.049 137.419 155.58 151.777C171.879 160.936 194.771 171.451 205.563 174.732C224.572 180.508 248.7 182.719 268.343 180.492C279.191 179.264 277.107 180.999 256.862 190.08C211.395 210.468 189.082 221.339 175.952 229.485C168.076 234.382 161.412 238.384 161.134 238.384C160.857 238.384 160.294 233.859 159.874 228.32ZM322.589 193.82C322.589 193.59 323.517 192.727 324.642 191.887C326.512 190.516 326.551 190.556 325.085 192.307C323.556 194.145 322.589 194.731 322.589 193.82Z" fill="#F4BB0D"/>
<path d="M77.2328 251.651C69.7449 249.86 62.0192 246.191 57.3758 242.23C55.1889 240.36 53.0494 238.83 52.6216 238.83C52.1937 238.83 51.1715 235.724 50.3554 231.929C49.5313 228.141 48.4061 223.046 47.8514 220.621C47.2968 218.189 46.7817 209.496 46.7025 201.303C46.5678 185.479 48.3269 173.768 52.265 164.402C54.3886 159.363 55.0383 158.792 60.9019 156.898C73.3026 152.897 80.7272 151.954 91.3689 153.047C105.79 154.521 118.112 160.107 128.23 169.735C138.896 179.893 150.742 185.733 150.227 202.111C149.846 213.942 139.997 214.488 135.203 223.553C127.478 238.173 116.654 246.485 99.6017 250.898C89.9426 253.402 85.22 253.561 77.2328 251.651ZM74.8399 238.83C74.8716 239.345 56.837 223.125 77.1219 234.092C81.6464 236.532 77.5419 234.345 77.9222 233.585C78.3184 232.784 77.8113 232.206 76.7099 232.206C75.6639 232.206 74.3724 231.097 73.8335 229.742L72.8668 227.277L83.2549 237.024C84.3009 237.998 70.4422 232.206 69.5151 232.206C67.5817 232.206 67.8669 231.144 69.6181 232.158C70.2599 232.531 70.1807 236.667 70.1807 237.911C70.1807 239.52 68.6118 234.187 69.935 233.712C70.9572 233.339 74.6418 235.154 74.6655 235.669L74.8399 238.83ZM92.296 228.165C93.9917 226.572 100.069 226.279 98.4131 227.238C96.7254 228.212 94.1739 227.65 95.3387 227.65C95.8775 227.65 91.5194 228.894 92.296 228.165ZM107.034 228.426C107.383 227.563 105.299 226.35 106.115 225.637C108.453 223.585 109.903 221.889 109.356 223.228C108.571 225.146 108.556 218.688 110.14 218.688C110.679 218.688 106.678 229.29 107.034 228.426ZM96.139 221.968C95.9964 220.653 98.8569 220.297 98.3498 221.715C98.0883 222.444 94.0392 223.458 94.8157 223.212C95.5923 222.967 96.1866 222.412 96.139 221.968ZM107.161 218.87C106.789 218.292 105.972 218.118 105.362 218.466C104.752 218.823 104.554 218.007 104.934 218.585C105.315 219.156 105.164 217.848 105.774 217.492C106.384 217.135 107.541 219.441 107.161 218.87ZM81.0283 216.62C81.9 215.297 88.1915 215.305 86.6225 216.216C85.3072 216.976 84.8555 217.293 86.5037 217.293C87.0742 217.293 80.6559 217.182 81.0283 216.62ZM58.8814 215.011C60.4106 211.256 58.6991 210.059 54.967 212.278C53.5645 213.102 59.856 207.959 61.1317 209.401C63.081 211.612 57.978 217.222 58.8814 215.011ZM109.102 204.132C109.427 205.012 84.5703 228.22 97.28 206.794C98.0486 205.503 92.3673 218.363 90.4894 218.363C89.1582 218.363 101.725 206.818 101.02 205.447C100.061 203.577 108.841 216.137 108.785 217.531C108.738 218.545 104.451 219.369 103.326 220.423C101.852 221.81 95.8934 210.637 96.9472 210.962C97.7475 211.216 103.928 208.538 103.928 209.948C103.928 212.286 98.9044 216.881 101.337 215.273C102.85 214.274 105.838 195.313 109.102 204.132ZM123.104 188.451C123.104 186.89 124.284 194.291 120.552 194.925C117.216 195.487 112.977 188.815 116.242 191.303C118.571 193.07 118.983 193.086 120.948 191.509C122.137 190.559 123.104 189.18 123.104 188.451ZM89.8554 180.686C74.9508 182.04 78.7146 183.031 77.9064 182.318C76.702 181.248 86.6305 177.365 85.5211 178.617C84.7367 179.513 84.4039 173.174 84.7842 173.752C85.6558 175.075 91.4323 180.535 89.8554 180.686Z" fill="#0357B9"/>
<path d="M166.76 334.302C155.017 332.377 144.335 329.421 143.266 327.797C142.949 327.329 145.421 323.272 148.749 318.795C173.535 285.436 207.567 258.773 262.027 230.033C286.346 217.197 305.165 206.317 315.814 198.94C325.434 192.268 342.589 176.453 342.589 174.25C342.589 173.703 343.983 174.107 344.189 173.251C345.608 167.38 346.067 174.907 346.527 179.052C347.438 187.126 347.446 213.258 346.368 214.843C345.885 215.564 338.088 219.978 329.039 224.661C301.108 239.122 271.005 259.24 253.414 275.215C235.031 291.894 218.803 314.461 213.859 330.214C212.464 334.643 212.052 334.984 207.211 335.705C198.502 337.004 179.145 336.331 166.76 334.302ZM237.273 330.245C238.787 324.437 247.424 307.25 253.906 299.192C269.983 279.192 296.876 254.026 331.02 239.542L341.677 235.009L340.869 238.068C339.269 244.122 333.08 257.449 328.278 265.215C314.546 287.378 293.477 308.693 270.831 320.57C264.531 323.883 238.763 333.28 237.091 333.28C236.758 333.28 236.838 331.909 237.273 330.245Z" fill="#BF2816"/>
<path d="M83.4792 289.322C71.546 276.398 66.3876 269.608 61.5462 260.44C56.0946 250.131 51.586 239.569 52.3308 238.863C52.6398 238.578 54.6921 239.862 56.8949 241.724C62.4812 246.446 70.5793 249.996 79.6362 251.684C86.419 252.952 88.4078 252.889 96.1177 251.185C114.794 247.049 126.616 238.467 134.699 223.174C139.532 214.022 139.706 213.333 140.079 201.495C140.412 191.083 140.087 188.31 137.932 182.906C134.223 173.603 122.139 163.754 109.445 158.271C102.465 155.252 100 153.096 101.641 153.374C115.523 155.767 138.93 173.365 148.066 188.341C154.318 198.603 159.056 216.954 159.841 228.658L160.855 238.76L151.877 245.131C135.84 256.518 117.124 272.413 104.247 285.241L91.4743 297.975L83.4792 289.322ZM230.355 167.692C210.561 164.776 192.344 157.763 162.384 141.52C151.196 135.458 138.7 128.921 134.611 126.987C125.158 122.534 100.579 113.319 91.7675 110.926C88.0433 109.92 85.0006 108.723 85.0006 108.279C85.0006 106.512 107.694 87.1387 110.555 86.4652C114.636 85.4985 127.116 89.3336 143.288 96.5046C155.926 102.107 161.513 105.007 178.414 114.745C189.04 120.87 209.769 130.624 219.317 133.992C235.664 139.769 259.95 141.868 277.374 139C287.541 137.336 302.089 131.726 310.575 126.203C314.656 123.556 318.356 121.401 318.808 121.409C319.806 121.441 329.632 135.307 329.632 136.678C329.632 137.677 321.304 145.101 314.275 150.355C307.524 155.402 289.656 163.128 279.062 165.576C267.604 168.223 241.622 169.356 230.355 167.692ZM54.9298 157.407C55.4369 156.393 64.8266 153.865 65.7616 153.58C71.4985 151.86 68.1308 154.871 66.4906 155.386C60.5953 157.217 53.3054 160.648 54.9298 157.407ZM72.069 152.288C73.733 152.011 76.332 151.417 77.9484 151.424C80.587 151.448 85.9831 152.764 83.0751 152.645C81.0862 152.558 65.5556 155.426 61.6254 156.234C59.8188 156.599 61.1421 154.126 72.069 152.288ZM79.6758 151.765L78.717 151.535L84.6282 151.401C87.5362 151.377 94.2397 151.829 96.1731 152.288C99.2713 153.025 107.702 153.92 105.206 155.989C92.5995 151.924 78.9706 152.7 82.2273 152.55L79.6758 151.765ZM244.364 126.813C235.164 125.981 218.009 120.934 207.558 115.981C203.77 114.191 193.034 108.398 183.707 103.113C165.443 92.7725 151.624 85.9739 136.41 79.8647C131.133 77.749 126.585 75.7998 126.307 75.5383C125.063 74.3656 149.603 64.7144 159.968 62.2897C176.98 58.3199 176.79 58.2803 187.455 67.8443C206.409 84.8408 227.55 97.0038 244.99 100.95C249.174 101.901 257.89 102.963 264.363 103.311C275.663 103.929 278.206 103.636 296.304 99.6583C298.151 99.2463 300.337 100.379 304.244 103.763C307.215 106.33 309.64 109.064 309.64 109.848C309.64 110.633 307.921 112.265 305.821 113.469C287.002 124.27 266.194 128.786 244.364 126.813ZM253.183 89.7219C237.05 87.1942 219.768 78.1769 206.139 65.1819L200.846 60.1345L206.734 59.77C219.182 59.0014 238.294 63.407 256.297 71.2119C269.086 76.7586 285.156 86.0294 284.609 87.5587C284.363 88.256 282.612 89.1434 280.726 89.5317C276.907 90.3082 257.755 90.4429 253.183 89.7219Z" fill="#0A841A"/>
<mask id="mask0_2838_1432" style="mask-type:luminance" maskUnits="userSpaceOnUse" x="0" y="0" width="390" height="390">
<path d="M0 0H389.47V389.113H0V0Z" fill="white"/>
</mask>
<g mask="url(#mask0_2838_1432)">
<path fill-rule="evenodd" clip-rule="evenodd" d="M194.468 55.7748C271.02 55.7748 333.174 117.929 333.174 194.481C333.174 271.032 271.02 333.187 194.468 333.187C117.908 333.187 55.7542 271.032 55.7542 194.481C55.7542 117.929 117.908 55.7748 194.468 55.7748ZM206.029 0.466754C198.327 0.00717562 190.601 0.00717562 182.899 0.466754L169.476 31.1794C157.496 33.0098 145.753 36.1634 134.453 40.5611L107.473 20.6803C100.571 24.1351 93.8834 27.994 87.4414 32.2491L91.1735 65.5528C81.7125 73.1279 73.1152 81.7252 65.5321 91.1862L32.2285 87.462C27.9813 93.9041 24.1145 100.592 20.6597 107.493L40.5484 134.466C36.1428 145.765 32.9971 157.508 31.1667 169.489L0.454059 182.912C-0.00551969 190.622 -0.00551969 198.34 0.454059 206.049L31.1667 219.472C32.9971 231.453 36.1428 243.196 40.5484 254.488L20.6597 281.468C24.1145 288.37 27.9813 295.057 32.2285 301.499L65.5401 297.775C73.1152 307.228 81.7125 315.834 91.1735 323.409L87.4414 356.712C93.8834 360.967 100.579 364.826 107.481 368.281L134.453 348.4C145.753 352.798 157.496 355.944 169.476 357.782L182.899 388.487C190.601 388.954 198.327 388.954 206.029 388.487L219.452 357.782C231.44 355.944 243.183 352.798 254.475 348.4L281.455 368.281C288.357 364.826 295.045 360.967 301.487 356.712L297.755 323.409C307.216 315.826 315.813 307.228 323.396 297.775L356.7 301.499C360.947 295.057 364.814 288.37 368.268 281.468L348.38 254.488C352.785 243.196 355.931 231.453 357.769 219.472L388.474 206.049C388.934 198.34 388.934 190.622 388.474 182.912L357.769 169.497C355.931 157.508 352.785 145.765 348.38 134.474L368.268 107.493C364.814 100.592 360.947 93.9041 356.7 87.462L323.396 91.1941C315.813 81.7331 307.216 73.1358 297.755 65.5528L301.487 32.2491C295.045 27.994 288.357 24.1351 281.455 20.6803L254.475 40.569C243.183 36.1634 231.44 33.0177 219.452 31.1794L206.029 0.466754Z" fill="white"/>
<path d="M194.46 388.903C190.625 388.903 186.726 388.792 182.899 388.562L180.253 388.403L167.012 358.111C156.6 356.368 146.347 353.618 136.45 349.926L109.842 369.537L107.473 368.348C100.603 364.917 93.8597 361.019 87.4414 356.78L85.2307 355.33L88.9152 322.478C80.7696 315.758 73.2578 308.246 66.5385 300.101L33.6864 303.777L32.2285 301.575C27.9892 295.148 24.0986 288.405 20.6597 281.535L19.4791 279.174L39.0905 252.558C35.398 242.661 32.6484 232.4 30.8973 221.996L0.612535 208.755L0.454059 206.117C-0.00551967 198.439 -0.00551967 190.657 0.454059 182.979L0.612535 180.341L30.8973 167.1C32.6484 156.696 35.398 146.435 39.0905 136.538L19.4791 109.922L20.6597 107.561C24.0986 100.691 27.9892 93.9476 32.2285 87.5293L33.6864 85.3186L66.5385 88.9952C73.2578 80.8495 80.7696 73.3457 88.9152 66.6264L85.2307 33.7664L87.4414 32.3084C93.8755 28.0771 100.611 24.1786 107.473 20.7476L109.842 19.567L136.45 39.1783C146.347 35.4859 156.6 32.7363 167.02 30.9851L180.261 0.692502L182.899 0.54195C190.562 0.0823709 198.367 0.0823709 206.029 0.54195L208.675 0.692502L221.916 30.9851C232.328 32.7363 242.589 35.4859 252.478 39.1783L279.086 19.567L281.455 20.7476C288.317 24.1786 295.061 28.0692 301.487 32.3084L303.697 33.7664L300.013 66.6264C308.159 73.3457 315.67 80.8495 322.39 88.9952L355.242 85.3186L356.7 87.5293C360.939 93.9476 364.829 100.691 368.268 107.561L369.449 109.922L349.838 136.538C353.53 146.427 356.28 156.688 358.031 167.1L388.324 180.341L388.474 182.979C388.934 190.657 388.934 198.439 388.474 206.117L388.324 208.755L358.031 221.996C356.28 232.408 353.53 242.669 349.838 252.566L369.449 279.174L368.268 281.535C364.829 288.413 360.939 295.148 356.7 301.575L355.242 303.777L322.39 300.101C315.67 308.246 308.159 315.758 300.013 322.478L303.697 355.33L301.487 356.78C295.061 361.027 288.325 364.917 281.455 368.356L279.086 369.537L252.478 349.926C242.589 353.618 232.328 356.368 221.916 358.111L208.675 388.403L206.029 388.562C202.194 388.792 198.303 388.903 194.46 388.903ZM186.045 380.076C191.655 380.329 197.273 380.329 202.883 380.076L215.894 350.314L218.239 349.957C229.626 348.214 240.838 345.203 251.567 341.019L253.786 340.156L279.934 359.426C284.902 356.851 289.791 354.03 294.522 351.011L290.901 318.73L292.763 317.24C301.748 310.045 309.957 301.836 317.16 292.843L318.642 290.988L350.923 294.602C353.942 289.879 356.763 284.99 359.346 280.022L340.076 253.873L340.939 251.655C345.123 240.926 348.126 229.714 349.869 218.327L350.226 215.974L379.988 202.971C380.241 197.369 380.241 191.727 379.988 186.125L350.226 173.122L349.869 170.769C348.126 159.382 345.123 148.17 340.939 137.441L340.076 135.223L359.346 109.074C356.763 104.106 353.942 99.2169 350.923 94.4943L318.642 98.1076L317.16 96.2534C309.957 87.2599 301.748 79.0588 292.763 71.856L290.901 70.3664L294.522 38.0849C289.791 35.0659 284.902 32.245 279.934 29.6698L253.786 48.9405L251.567 48.0768C240.838 43.893 229.626 40.8899 218.239 39.1466L215.894 38.7901L202.883 9.0204C197.273 8.77477 191.655 8.77477 186.045 9.0204L173.034 38.7901L170.681 39.1466C159.294 40.8899 148.082 43.893 137.353 48.0768L135.143 48.9405L108.994 29.6698C104.026 32.245 99.1369 35.0659 94.4064 38.0849L98.0276 70.3664L96.1655 71.856C87.1799 79.0508 78.9709 87.2599 71.7682 96.2534L70.2864 98.1076L38.0049 94.4943C34.9859 99.2169 32.1571 104.106 29.5819 109.074L48.8526 135.223L47.9889 137.441C43.8051 148.178 40.802 159.39 39.0588 170.769L38.7022 173.122L8.94044 186.125C8.68688 191.727 8.68688 197.369 8.94044 202.963L38.7022 215.974L39.0588 218.327C40.802 229.706 43.8051 240.918 47.9889 251.655L48.8526 253.873L29.5819 280.022C32.1571 284.99 34.9859 289.879 38.0049 294.602L70.2864 290.988L71.7682 292.843C78.9709 301.836 87.1799 310.045 96.1655 317.24L98.0276 318.73L94.4064 351.011C99.129 354.03 104.018 356.851 108.994 359.426L135.143 340.156L137.361 341.019C148.082 345.203 159.302 348.214 170.681 349.949L173.034 350.314L186.045 380.076ZM194.46 334.498C117.298 334.498 54.5181 271.718 54.5181 194.548C54.5181 117.386 117.298 54.598 194.46 54.598C271.63 54.598 334.41 117.386 334.41 194.548C334.41 271.718 271.63 334.498 194.46 334.498ZM194.46 63.2429C122.06 63.2429 63.155 122.148 63.155 194.548C63.155 266.956 122.06 325.861 194.46 325.861C266.868 325.861 325.773 266.956 325.773 194.548C325.773 122.148 266.868 63.2429 194.46 63.2429Z" fill="#A6A6A6"/>
</g>
</svg>
