<svg width="172" height="63" viewBox="0 0 172 63" fill="none" xmlns="http://www.w3.org/2000/svg">
<circle cx="31.0488" cy="31.1909" r="23.355" fill="white"/>
<path d="M46.1826 50.9365C46.1826 50.8998 46.3305 50.7608 46.5099 50.6282C46.808 50.4096 46.8143 50.4159 46.5806 50.6951C46.3368 50.9883 46.1826 51.0805 46.1826 50.9365ZM42.9939 47.044C43.5548 46.5109 44.0551 46.0762 44.1069 46.0762C44.1587 46.0762 43.7418 46.5109 43.1821 47.044C42.6212 47.5759 42.1209 48.0117 42.0691 48.0117C42.0186 48.0117 42.4342 47.5759 42.9939 47.044ZM29.8687 46.1849C29.8687 46.1483 30.0152 46.0106 30.1959 45.8779C30.494 45.6581 30.5004 45.6644 30.2666 45.9436C30.0215 46.2367 29.8687 46.3302 29.8687 46.1849ZM25.4898 38.3128C25.3433 36.3672 24.3869 33.5183 23.313 31.8229C22.4148 30.4053 20.0687 28.1629 18.6171 27.3353C15.9981 25.8433 12.2951 25.6172 9.38684 26.7731L8.68945 27.0498L9.05457 26.1478C9.45506 25.1573 10.889 22.7506 11.6319 21.8182C12.0702 21.2699 12.1587 21.2358 12.875 21.3394C15.4675 21.7133 20.7345 23.8194 24.8051 26.1086C27.4038 27.5691 31.0537 29.2456 32.7744 29.7686C35.8053 30.6896 39.6523 31.0421 42.7842 30.6871C44.5137 30.4913 44.1814 30.7679 40.9535 32.2158C33.7043 35.4664 30.1466 37.1998 28.0532 38.4998C26.7974 39.2793 25.7349 39.9173 25.6907 39.9173C25.6465 39.9173 25.5568 39.1959 25.4898 38.3128ZM51.4332 32.8121C51.4332 32.7754 51.581 32.6377 51.7604 32.5038C52.0586 32.2852 52.0649 32.2916 51.8312 32.5708C51.5874 32.8639 51.4332 32.9574 51.4332 32.8121Z" fill="#F4BB0D"/>
<path d="M12.3142 42.0329C11.1204 41.7474 9.88856 41.1625 9.14822 40.5308C8.79953 40.2326 8.45842 39.9888 8.3902 39.9888C8.32198 39.9888 8.159 39.4935 8.02887 38.8884C7.89748 38.2845 7.71808 37.4721 7.62965 37.0855C7.54121 36.6977 7.45909 35.313 7.44646 34.0054C7.42498 31.4825 7.70545 29.6152 8.33335 28.1219C8.67193 27.3184 8.77553 27.2274 9.71042 26.9255C11.6876 26.2875 12.8714 26.1371 14.5681 26.3115C16.8674 26.5465 18.832 27.4371 20.4453 28.9721C22.1458 30.5918 24.0346 31.5229 23.9525 34.1343C23.8918 36.0205 22.3214 36.1077 21.5571 37.5543C20.3253 39.8839 18.5995 41.2092 15.8807 41.9129C14.3407 42.3121 13.5877 42.3374 12.3142 42.0329ZM11.9327 39.9888C11.9378 40.0709 9.06231 37.4848 12.2966 39.2333C13.0179 39.6224 12.3635 39.2737 12.4242 39.1524C12.4873 39.0248 12.4065 38.9326 12.2309 38.9326C12.0641 38.9326 11.8582 38.7557 11.7723 38.5397L11.6181 38.1468L13.2744 39.7007C13.4412 39.8561 11.2315 38.9326 11.0837 38.9326C10.7754 38.9326 10.8209 38.7633 11.1001 38.925C11.2025 38.9857 11.1898 39.6439 11.1898 39.8422C11.1898 40.0987 10.9397 39.2484 11.1507 39.1726C11.3136 39.1133 11.9011 39.4026 11.9049 39.4847L11.9327 39.9888ZM14.7159 38.2883C14.9863 38.0343 15.9553 37.9876 15.6912 38.1405C15.4221 38.2959 15.0153 38.2062 15.2011 38.2062C15.287 38.2062 14.5921 38.4045 14.7159 38.2883ZM17.0658 38.33C17.1214 38.1923 16.7891 37.999 16.9192 37.8853C17.2919 37.558 17.5231 37.2877 17.436 37.5012C17.3109 37.8069 17.3084 36.7773 17.561 36.7773C17.6469 36.7773 17.0089 38.4677 17.0658 38.33ZM15.3287 37.3003C15.3059 37.0906 15.762 37.0337 15.6811 37.2599C15.6394 37.3761 14.9939 37.5378 15.1177 37.4987C15.2415 37.4595 15.3362 37.3711 15.3287 37.3003ZM17.086 36.8063C17.0266 36.7141 16.8965 36.6863 16.7992 36.7432C16.7019 36.7988 16.6704 36.6686 16.731 36.7609C16.7916 36.8518 16.7676 36.6434 16.8649 36.5865C16.9622 36.5297 17.1467 36.8986 17.086 36.8063ZM12.9194 36.4475C13.0584 36.2378 14.0615 36.2378 13.8113 36.3831C13.6016 36.5044 13.5296 36.5562 13.7924 36.5562C13.8834 36.5562 12.86 36.5372 12.9194 36.4475ZM9.38826 36.1911C9.6321 35.5922 9.35921 35.4015 8.76416 35.7552C8.54054 35.8879 9.54366 35.0667 9.74706 35.2966C10.0579 35.6491 9.24424 36.5436 9.38826 36.1911ZM17.3955 34.4565C17.4473 34.5967 13.4841 38.2971 15.5106 34.881C15.6331 34.675 14.7273 36.7255 14.4279 36.7255C14.2156 36.7255 16.2193 34.8847 16.1069 34.6662C15.954 34.368 17.3538 36.3705 17.345 36.5928C17.3374 36.7558 16.6539 36.8859 16.4745 37.0552C16.2395 37.2751 15.2895 35.4937 15.4575 35.5455C15.5851 35.5859 16.5706 35.1602 16.5706 35.3838C16.5706 35.7565 15.7696 36.4892 16.1574 36.2328C16.3987 36.0736 16.875 33.0503 17.3955 34.4565ZM19.6279 31.9562C19.6279 31.7074 19.8162 32.8873 19.2211 32.9884C18.6892 33.0781 18.0133 32.0156 18.5338 32.4111C18.9053 32.6928 18.971 32.6953 19.2843 32.4439C19.4738 32.2923 19.6279 32.0725 19.6279 31.9562ZM14.3268 30.7181C11.9504 30.9342 12.5505 31.0921 12.4216 30.9784C12.2296 30.8078 13.8126 30.19 13.6357 30.3884C13.5107 30.5312 13.4576 29.5205 13.5182 29.6127C13.6572 29.8237 14.5782 30.6954 14.3268 30.7181Z" fill="#0357B9"/>
<path d="M26.5867 55.2125C24.7144 54.9055 23.0113 54.4343 22.8408 54.1753C22.7903 54.1008 23.1844 53.4539 23.715 52.7401C27.6669 47.4213 33.0931 43.17 41.7763 38.5878C45.6536 36.5411 48.6541 34.8065 50.352 33.6303C51.8858 32.5665 54.621 30.0448 54.621 29.6936C54.621 29.6064 54.8433 29.6709 54.8762 29.5344C55.1023 28.5983 55.1756 29.7985 55.2489 30.4592C55.3942 31.7466 55.3954 35.9132 55.2236 36.1659C55.1466 36.2809 53.9034 36.9846 52.4606 37.7312C48.0072 40.0369 43.2077 43.2458 40.403 45.7915C37.4719 48.4509 34.8845 52.049 34.0962 54.5606C33.8738 55.2669 33.8081 55.3212 33.0362 55.4361C31.6478 55.6433 28.5614 55.536 26.5867 55.2125ZM37.8295 54.5657C38.0708 53.6396 39.4479 50.8994 40.4813 49.6145C43.0447 46.427 47.3326 42.4133 52.7765 40.1038L54.4757 39.3824L54.3468 39.8688C54.0916 40.8341 53.1049 42.9591 52.3393 44.1972C50.1499 47.7308 46.7906 51.1293 43.1799 53.0244C42.1755 53.5512 38.067 55.0496 37.8004 55.0496C37.7474 55.0496 37.76 54.831 37.8295 54.5657Z" fill="#BF2816"/>
<path d="M13.3108 48.0405C11.4081 45.9799 10.5857 44.8972 9.81373 43.4355C8.94453 41.7919 8.22567 40.1078 8.34443 39.9966C8.3937 39.9499 8.72091 40.1545 9.07213 40.4514C9.96281 41.2044 11.254 41.7704 12.698 42.0395C13.7795 42.2416 14.0966 42.2315 15.3258 41.9599C18.3036 41.3004 20.1886 39.9322 21.4772 37.4938C22.2479 36.0347 22.2757 35.9247 22.335 34.0373C22.3881 32.3784 22.3363 31.935 21.9927 31.0734C21.4014 29.5902 19.4748 28.0198 17.4508 27.1455C16.3378 26.6642 15.9449 26.3206 16.2064 26.366C18.4198 26.7463 22.1519 29.5523 23.6085 31.9413C24.6053 33.5761 25.3608 36.5021 25.4859 38.3681L25.6476 39.9789L24.2162 40.9959C21.6591 42.8101 18.675 45.3445 16.6221 47.3899L14.5855 49.4201L13.3108 48.0405ZM36.7287 28.6477C33.5728 28.184 30.6683 27.0647 25.8914 24.4748C24.1076 23.5083 22.1152 22.466 21.4633 22.159C19.9561 21.4477 16.0371 19.9784 14.6322 19.5969C14.0385 19.4364 13.5533 19.2457 13.5533 19.1749C13.5533 18.8932 17.1716 15.8042 17.6277 15.6968C18.2783 15.544 20.2682 16.1542 22.8467 17.2975C24.8618 18.1907 25.7525 18.6531 28.4473 20.2058C30.1414 21.1824 33.4464 22.7376 34.9688 23.2746C37.5751 24.1956 41.4474 24.5304 44.2255 24.073C45.8465 23.8077 48.166 22.9132 49.5191 22.0327C50.1697 21.6107 50.7597 21.2671 50.8317 21.2683C50.9909 21.2734 52.5575 23.4843 52.5575 23.7028C52.5575 23.862 51.2297 25.0458 50.1091 25.8834C49.0327 26.6882 46.1838 27.92 44.4946 28.3104C42.6678 28.7336 38.5252 28.913 36.7287 28.6477ZM8.75881 27.0078C8.83967 26.8461 10.3368 26.4431 10.4858 26.3989C11.4005 26.1247 10.8636 26.6048 10.6021 26.6857C9.66213 26.9775 8.49982 27.5246 8.75881 27.0078ZM11.4915 26.1917C11.7568 26.1475 12.1712 26.0527 12.4289 26.054C12.8496 26.0578 13.71 26.2675 13.2463 26.2485C12.9292 26.2347 10.453 26.692 9.82637 26.8209C9.53832 26.879 9.7493 26.4848 11.4915 26.1917ZM12.7043 26.1083L12.5515 26.0717L13.4939 26.0502C13.9576 26.0464 15.0264 26.1184 15.3347 26.1917C15.8287 26.3105 17.1729 26.452 16.7749 26.7817C14.7649 26.1336 12.5919 26.2574 13.1111 26.2347L12.7043 26.1083ZM38.9623 22.1299C37.4955 21.9973 34.7603 21.1925 33.0939 20.4029C32.4901 20.1174 30.7782 19.1939 29.2912 18.3512C26.3791 16.7025 24.1758 15.6185 21.7501 14.6444C20.9087 14.3071 20.1835 13.9963 20.1393 13.9546C19.9409 13.7677 23.8536 12.2289 25.5061 11.8423C28.2186 11.2093 28.1883 11.203 29.8888 12.7279C32.9108 15.4378 36.2814 17.3771 39.0621 18.0063C39.7292 18.1579 41.1189 18.3272 42.1511 18.3828C43.9527 18.4813 44.3582 18.4346 47.2437 17.8004C47.5381 17.7347 47.8868 17.9153 48.5096 18.4548C48.9834 18.8641 49.37 19.3 49.37 19.4251C49.37 19.5501 49.0959 19.8104 48.7611 20.0024C45.7605 21.7244 42.4429 22.4458 38.9623 22.1299ZM40.3685 16.2161C37.7962 15.8131 35.0408 14.3753 32.8678 12.3034L32.0239 11.4986L32.9626 11.4405C34.9473 11.318 37.9946 12.0204 40.865 13.2648C42.9041 14.1492 45.4662 15.6274 45.379 15.8712C45.3398 15.9824 45.0606 16.1239 44.76 16.1858C44.151 16.3096 41.0974 16.3311 40.3685 16.2161Z" fill="#0A841A"/>
<path d="M46.1826 49.9423C46.1826 49.9057 46.3305 49.7667 46.5099 49.634C46.808 49.4155 46.8143 49.4218 46.5806 49.701C46.3368 49.9941 46.1826 50.0863 46.1826 49.9423ZM42.9939 46.0499C43.5548 45.5167 44.0551 45.0821 44.1069 45.0821C44.1587 45.0821 43.7418 45.5167 43.1821 46.0499C42.6212 46.5817 42.1209 47.0176 42.0691 47.0176C42.0186 47.0176 42.4342 46.5817 42.9939 46.0499ZM29.8687 45.1908C29.8687 45.1541 30.0152 45.0164 30.1959 44.8838C30.494 44.6639 30.5004 44.6702 30.2666 44.9495C30.0215 45.2426 29.8687 45.336 29.8687 45.1908ZM25.4898 37.3187C25.3433 35.3731 24.3869 32.5242 23.313 30.8287C22.4148 29.4112 20.0687 27.1687 18.6171 26.3412C15.9981 24.8492 12.2951 24.623 9.38684 25.779L8.68945 26.0557L9.05457 25.1524C9.45506 24.1631 10.889 21.7564 11.6319 20.824C12.0702 20.2757 12.1587 20.2416 12.875 20.3452C15.4675 20.7192 20.7345 22.8252 24.8051 25.1145C27.4038 26.5749 31.0537 28.2514 32.7744 28.7745C35.8053 29.6955 39.6523 30.0479 42.7842 29.6929C44.5137 29.4971 44.1814 29.7738 40.9535 31.2216C33.7043 34.4723 30.1466 36.2056 28.0532 37.5044C26.7974 38.2852 25.7349 38.9232 25.6907 38.9232C25.6465 38.9232 25.5568 38.2018 25.4898 37.3187ZM51.4332 31.8179C51.4332 31.7813 51.581 31.6436 51.7604 31.5097C52.0586 31.2911 52.0649 31.2974 51.8312 31.5766C51.5874 31.8697 51.4332 31.9632 51.4332 31.8179Z" fill="#F4BB0D"/>
<path d="M12.3142 41.0388C11.1204 40.7533 9.88856 40.1683 9.14822 39.5366C8.79953 39.2385 8.45842 38.9946 8.3902 38.9946C8.32198 38.9946 8.159 38.4994 8.02887 37.8942C7.89748 37.2903 7.71808 36.478 7.62965 36.0914C7.54121 35.7035 7.45909 34.3176 7.44646 33.0113C7.42498 30.4883 7.70545 28.6211 8.33335 27.1278C8.67193 26.3243 8.77553 26.2333 9.71042 25.9313C11.6876 25.2933 12.8714 25.143 14.5681 25.3173C16.8674 25.5523 18.832 26.443 20.4453 27.978C22.1458 29.5977 24.0346 30.5288 23.9525 33.1402C23.8918 35.0264 22.3214 35.1136 21.5571 36.5589C20.3253 38.8898 18.5995 40.2151 15.8807 40.9188C14.3407 41.318 13.5877 41.3433 12.3142 41.0388ZM11.9327 38.9946C11.9378 39.0768 9.06231 36.4906 12.2966 38.2391C13.0179 38.6283 12.3635 38.2796 12.4242 38.1583C12.4873 38.0307 12.4065 37.9385 12.2309 37.9385C12.0641 37.9385 11.8582 37.7616 11.7723 37.5455L11.6181 37.1526L13.2744 38.7066C13.4412 38.862 11.2315 37.9385 11.0837 37.9385C10.7754 37.9385 10.8209 37.7692 11.1001 37.9309C11.2025 37.9903 11.1898 38.6497 11.1898 38.8481C11.1898 39.1046 10.9397 38.2543 11.1507 38.1785C11.3136 38.1191 11.9011 38.4084 11.9049 38.4906L11.9327 38.9946ZM14.7159 37.2941C14.9863 37.0402 15.9553 36.9935 15.6912 37.1463C15.4221 37.3017 15.0153 37.212 15.2011 37.212C15.287 37.212 14.5921 37.4104 14.7159 37.2941ZM17.0658 37.3358C17.1214 37.1981 16.7891 37.0048 16.9192 36.8911C17.2919 36.5639 17.5231 36.2935 17.436 36.5071C17.3109 36.8128 17.3084 35.7831 17.561 35.7831C17.6469 35.7831 17.0089 37.4735 17.0658 37.3358ZM15.3287 36.3062C15.3059 36.0965 15.762 36.0396 15.6811 36.2657C15.6394 36.382 14.9939 36.5437 15.1177 36.5045C15.2415 36.4654 15.3362 36.3769 15.3287 36.3062ZM17.086 35.8122C17.0266 35.72 16.8965 35.6922 16.7992 35.7478C16.7019 35.8046 16.6704 35.6745 16.731 35.7667C16.7916 35.8577 16.7676 35.6492 16.8649 35.5924C16.9622 35.5355 17.1467 35.9032 17.086 35.8122ZM12.9194 35.4534C13.0584 35.2424 14.0615 35.2437 13.8113 35.389C13.6016 35.5103 13.5296 35.5608 13.7924 35.5608C13.8834 35.5608 12.86 35.5431 12.9194 35.4534ZM9.38826 35.1969C9.6321 34.5981 9.35921 34.4073 8.76416 34.7611C8.54054 34.8925 9.54366 34.0725 9.74706 34.3025C10.0579 34.6549 9.24424 35.5494 9.38826 35.1969ZM17.3955 33.4623C17.4473 33.6026 13.4841 37.303 15.5106 33.8868C15.6331 33.6809 14.7273 35.7313 14.4279 35.7313C14.2156 35.7313 16.2193 33.8906 16.1069 33.672C15.954 33.3739 17.3538 35.3763 17.345 35.5987C17.3374 35.7604 16.6539 35.8918 16.4745 36.0598C16.2395 36.2809 15.2895 34.4996 15.4575 34.5513C15.5851 34.5918 16.5706 34.1648 16.5706 34.3896C16.5706 34.7623 15.7696 35.4951 16.1574 35.2386C16.3987 35.0794 16.875 32.0562 17.3955 33.4623ZM19.6279 30.9621C19.6279 30.7132 19.8162 31.8932 19.2211 31.9943C18.6892 32.084 18.0133 31.0202 18.5338 31.4169C18.9053 31.6986 18.971 31.7012 19.2843 31.4498C19.4738 31.2982 19.6279 31.0783 19.6279 30.9621ZM14.3268 29.724C11.9504 29.94 12.5505 30.098 12.4216 29.9842C12.2296 29.8137 13.8126 29.1946 13.6357 29.3943C13.5107 29.537 13.4576 28.5263 13.5182 28.6185C13.6572 28.8295 14.5782 29.7 14.3268 29.724Z" fill="#0357B9"/>
<path d="M26.5867 54.2164C24.7144 53.9094 23.0113 53.4382 22.8408 53.1792C22.7903 53.1047 23.1844 52.4578 23.715 51.744C27.6669 46.4252 33.0931 42.1739 41.7763 37.5917C45.6536 35.545 48.6541 33.8104 50.352 32.6342C51.8858 31.5704 54.621 29.0487 54.621 28.6975C54.621 28.6103 54.8433 28.6748 54.8762 28.5383C55.1023 27.6022 55.1756 28.8024 55.2489 29.4631C55.3942 30.7505 55.3954 34.9171 55.2236 35.1698C55.1466 35.2848 53.9034 35.9885 52.4606 36.7351C48.0072 39.0408 43.2077 42.2485 40.403 44.7954C37.4719 47.4549 34.8845 51.0529 34.0962 53.5645C33.8738 54.2708 33.8081 54.3251 33.0362 54.4401C31.6478 54.6472 28.5614 54.5399 26.5867 54.2164ZM37.8295 53.5696C38.0708 52.6435 39.4479 49.9033 40.4813 48.6184C43.0447 45.4297 47.3326 41.4172 52.7765 39.1077L54.4757 38.3851L54.3468 38.8727C54.0916 39.838 53.1049 41.963 52.3393 43.2011C50.1499 46.7347 46.7906 50.1332 43.1799 52.027C42.1755 52.5551 38.067 54.0535 37.8004 54.0535C37.7474 54.0535 37.76 53.8349 37.8295 53.5696Z" fill="#BF2816"/>
<path d="M13.3108 47.0454C11.4081 44.9848 10.5857 43.9021 9.81373 42.4404C8.94453 40.7967 8.22567 39.1127 8.34443 39.0002C8.3937 38.9547 8.72091 39.1594 9.07213 39.4563C9.96281 40.2093 11.254 40.7753 12.698 41.0444C13.7795 41.2465 14.0966 41.2364 15.3258 40.9648C18.3036 40.3053 20.1886 38.937 21.4772 36.4987C22.2479 35.0395 22.2757 34.9296 22.335 33.0421C22.3881 31.3821 22.3363 30.9399 21.9927 30.0783C21.4014 28.5951 19.4748 27.0247 17.4508 26.1504C16.3378 25.6691 15.9449 25.3254 16.2064 25.3697C18.4198 25.7512 22.1519 28.5572 23.6085 30.9449C24.6053 32.581 25.3608 35.507 25.4859 37.373L25.6476 38.9838L24.2162 39.9995C21.6591 41.815 18.675 44.3493 16.6221 46.3947L14.5855 48.425L13.3108 47.0454ZM36.7287 27.6526C33.5728 27.1877 30.6683 26.0696 25.8914 23.4797C24.1076 22.5132 22.1152 21.4709 21.4633 21.1626C19.9561 20.4526 16.0371 18.9833 14.6322 18.6018C14.0385 18.4413 13.5533 18.2505 13.5533 18.1798C13.5533 17.8981 17.1716 14.8091 17.6277 14.7017C18.2783 14.5476 20.2682 15.1591 22.8467 16.3024C24.8618 17.1956 25.7525 17.658 28.4473 19.2107C30.1414 20.1873 33.4464 21.7425 34.9688 22.2794C37.5751 23.2004 41.4474 23.5352 44.2255 23.0779C45.8465 22.8126 48.166 21.9181 49.5191 21.0375C50.1697 20.6156 50.7597 20.2719 50.8317 20.2732C50.9909 20.2783 52.5575 22.4892 52.5575 22.7077C52.5575 22.8669 51.2297 24.0507 50.1091 24.8883C49.0327 25.6931 46.1838 26.9249 44.4946 27.3153C42.6678 27.7372 38.5252 27.9179 36.7287 27.6526ZM8.75881 26.0127C8.83967 25.851 10.3368 25.448 10.4858 25.4025C11.4005 25.1284 10.8636 25.6084 10.6021 25.6906C9.66213 25.9824 8.49982 26.5294 8.75881 26.0127ZM11.4915 25.1966C11.7568 25.1524 12.1712 25.0576 12.4289 25.0589C12.8496 25.0627 13.71 25.2724 13.2463 25.2534C12.9292 25.2395 10.453 25.6969 9.82637 25.8257C9.53832 25.8839 9.7493 25.4897 11.4915 25.1966ZM12.7043 25.1132L12.5515 25.0766L13.4939 25.0551C13.9576 25.0513 15.0264 25.1233 15.3347 25.1966C15.8287 25.3141 17.1729 25.4568 16.7749 25.7866C14.7649 25.1385 12.5919 25.2623 13.1111 25.2383L12.7043 25.1132ZM38.9623 21.1348C37.4955 21.0022 34.7603 20.1974 33.0939 19.4078C32.4901 19.1223 30.7782 18.1987 29.2912 17.3561C26.3791 15.7074 24.1758 14.6234 21.7501 13.6493C20.9087 13.312 20.1835 13.0012 20.1393 12.9595C19.9409 12.7725 23.8536 11.2338 25.5061 10.8472C28.2186 10.2142 28.1883 10.2079 29.8888 11.7328C32.9108 14.4427 36.2814 16.382 39.0621 17.0112C39.7292 17.1628 41.1189 17.3321 42.1511 17.3877C43.9527 17.4862 44.3582 17.4395 47.2437 16.8052C47.5381 16.7395 47.8868 16.9202 48.5096 17.4597C48.9834 17.869 49.37 18.3049 49.37 18.4299C49.37 18.555 49.0959 18.8153 48.7611 19.0073C45.7605 20.7293 42.4429 21.4494 38.9623 21.1348ZM40.3685 15.221C37.7962 14.818 35.0408 13.3802 32.8678 11.3083L32.0239 10.5035L32.9626 10.4454C34.9473 10.3229 37.9946 11.0253 40.865 12.2697C42.9041 13.1541 45.4662 14.6322 45.379 14.8761C45.3398 14.9872 45.0606 15.1287 44.76 15.1906C44.151 15.3145 41.0974 15.3359 40.3685 15.221Z" fill="#0A841A"/>
<mask id="mask0_2252_982" style="mask-type:luminance" maskUnits="userSpaceOnUse" x="0" y="0" width="63" height="63">
<path d="M0 0.916016H62.0974V62.9566H0V0.916016Z" fill="white"/>
</mask>
<g mask="url(#mask0_2252_982)">
<path fill-rule="evenodd" clip-rule="evenodd" d="M31.0097 9.80886C43.2152 9.80886 53.1251 19.7188 53.1251 31.9242C53.1251 44.1297 43.2152 54.0396 31.0097 54.0396C18.803 54.0396 8.89305 44.1297 8.89305 31.9242C8.89305 19.7188 18.803 9.80886 31.0097 9.80886ZM32.853 0.990504C31.625 0.917228 30.3932 0.917228 29.1652 0.990504L27.025 5.88735C25.1148 6.17918 23.2425 6.68201 21.4409 7.38318L17.1391 4.21337C16.0387 4.7642 14.9724 5.37947 13.9453 6.0579L14.5403 11.3679C13.0319 12.5757 11.6611 13.9464 10.4521 15.4549L5.14209 14.8611C4.46492 15.8882 3.84839 16.9545 3.29756 18.0549L6.46863 22.3554C5.76619 24.157 5.26463 26.0293 4.97279 27.9396L0.0759528 30.0797C0.00267719 31.309 0.00267719 32.5395 0.0759528 33.7688L4.97279 35.9089C5.26463 37.8191 5.76619 39.6915 6.46863 41.4918L3.29756 45.7936C3.84839 46.894 4.46492 47.9603 5.14209 48.9874L10.4533 48.3936C11.6611 49.9008 13.0319 51.2728 14.5403 52.4806L13.9453 57.7906C14.9724 58.469 16.04 59.0843 17.1404 59.6351L21.4409 56.4653C23.2425 57.1665 25.1148 57.668 27.025 57.9611L29.1652 62.8567C30.3932 62.9313 31.625 62.9313 32.853 62.8567L34.9931 57.9611C36.9046 57.668 38.7769 57.1665 40.5772 56.4653L44.879 59.6351C45.9794 59.0843 47.0457 58.469 48.0728 57.7906L47.4778 52.4806C48.9863 51.2716 50.357 49.9008 51.5661 48.3936L56.876 48.9874C57.5532 47.9603 58.1697 46.894 58.7206 45.7936L55.5495 41.4918C56.2519 39.6915 56.7535 37.8191 57.0466 35.9089L61.9422 33.7688C62.0154 32.5395 62.0154 31.309 61.9422 30.0797L57.0466 27.9408C56.7535 26.0293 56.2519 24.157 55.5495 22.3567L58.7206 18.0549C58.1697 16.9545 57.5532 15.8882 56.876 14.8611L51.5661 15.4561C50.357 13.9477 48.9863 12.5769 47.4778 11.3679L48.0728 6.0579C47.0457 5.37947 45.9794 4.7642 44.879 4.21337L40.5772 7.38444C38.7769 6.68201 36.9046 6.18045 34.9931 5.88735L32.853 0.990504Z" fill="white"/>
<path d="M31.0084 62.9228C30.397 62.9228 29.7754 62.9051 29.1652 62.8684L28.7432 62.8432L26.6321 58.0133C24.972 57.7353 23.3372 57.297 21.7593 56.7082L17.5168 59.8351L17.1391 59.6456C16.0438 59.0985 14.9686 58.4769 13.9453 57.801L13.5928 57.5698L14.1803 52.3319C12.8815 51.2605 11.6838 50.0629 10.6125 48.7641L5.37455 49.3503L5.14209 48.9991C4.46618 47.9745 3.84586 46.8994 3.29756 45.804L3.10932 45.4275L6.23617 41.1839C5.64744 39.6059 5.20904 37.9698 4.92984 36.311L0.10122 34.1999L0.0759528 33.7792C0.0026772 32.555 0.0026772 31.3144 0.0759528 30.0902L0.10122 29.6695L4.92984 27.5584C5.20904 25.8996 5.64744 24.2635 6.23617 22.6855L3.10932 18.4419L3.29756 18.0654C3.84586 16.97 4.46618 15.8949 5.14209 14.8716L5.37455 14.5191L10.6125 15.1053C11.6838 13.8065 12.8815 12.6101 14.1803 11.5388L13.5928 6.29955L13.9453 6.06709C14.9711 5.39245 16.045 4.77087 17.1391 4.22383L17.5168 4.03559L21.7593 7.16244C23.3372 6.57371 24.972 6.13531 26.6334 5.85611L28.7445 1.02623L29.1652 1.00222C30.3868 0.928947 31.6313 0.928947 32.853 1.00222L33.2749 1.02623L35.386 5.85611C37.0461 6.13531 38.6822 6.57371 40.2589 7.16244L44.5013 4.03559L44.879 4.22383C45.9731 4.77087 47.0482 5.39119 48.0728 6.06709L48.4253 6.29955L47.8378 11.5388C49.1366 12.6101 50.3343 13.8065 51.4056 15.1053L56.6436 14.5191L56.876 14.8716C57.5519 15.8949 58.1722 16.97 58.7206 18.0654L58.9088 18.4419L55.7819 22.6855C56.3707 24.2622 56.8091 25.8983 57.0883 27.5584L61.9182 29.6695L61.9422 30.0902C62.0154 31.3144 62.0154 32.555 61.9422 33.7792L61.9182 34.1999L57.0883 36.311C56.8091 37.9711 56.3707 39.6072 55.7819 41.1851L58.9088 45.4275L58.7206 45.804C58.1722 46.9006 57.5519 47.9745 56.876 48.9991L56.6436 49.3503L51.4056 48.7641C50.3343 50.0629 49.1366 51.2605 47.8378 52.3319L48.4253 57.5698L48.0728 57.801C47.0482 58.4782 45.9744 59.0985 44.879 59.6468L44.5013 59.8351L40.2589 56.7082C38.6822 57.297 37.0461 57.7353 35.386 58.0133L33.2749 62.8432L32.853 62.8684C32.2415 62.9051 31.6212 62.9228 31.0084 62.9228ZM29.6667 61.5154C30.5612 61.5558 31.4569 61.5558 32.3514 61.5154L34.4259 56.7701L34.7998 56.7133C36.6153 56.4353 38.403 55.9552 40.1136 55.2882L40.4673 55.1505L44.6365 58.223C45.4286 57.8124 46.2081 57.3626 46.9623 56.8813L46.385 51.7343L46.6819 51.4968C48.1145 50.3497 49.4234 49.0408 50.5718 47.6069L50.808 47.3112L55.955 47.8873C56.4364 47.1344 56.8861 46.3549 57.298 45.5627L54.2255 41.3936L54.3632 41.0398C55.0302 39.3292 55.5091 37.5416 55.787 35.7261L55.8438 35.3509L60.5891 33.2777C60.6295 32.3845 60.6295 31.4849 60.5891 30.5917L55.8438 28.5185L55.787 28.1433C55.5091 26.3278 55.0302 24.5402 54.3632 22.8296L54.2255 22.4758L57.298 18.3067C56.8861 17.5145 56.4364 16.735 55.955 15.9821L50.808 16.5582L50.5718 16.2625C49.4234 14.8286 48.1145 13.521 46.6819 12.3726L46.385 12.1351L46.9623 6.98809C46.2081 6.50675 45.4286 6.05699 44.6365 5.64639L40.4673 8.71892L40.1136 8.58121C38.403 7.91415 36.6153 7.43533 34.7998 7.15739L34.4259 7.10053L32.3514 2.35403C31.4569 2.31487 30.5612 2.31487 29.6667 2.35403L27.5923 7.10053L27.217 7.15739C25.4016 7.43533 23.6139 7.91415 21.9033 8.58121L21.5508 8.71892L17.3817 5.64639C16.5895 6.05699 15.81 6.50675 15.0558 6.98809L15.6332 12.1351L15.3363 12.3726C13.9036 13.5197 12.5947 14.8286 11.4463 16.2625L11.2101 16.5582L6.06309 15.9821C5.58174 16.735 5.13072 17.5145 4.72012 18.3067L7.79265 22.4758L7.65494 22.8296C6.98788 24.5414 6.50906 26.3291 6.23112 28.1433L6.17426 28.5185L1.42903 30.5917C1.3886 31.4849 1.3886 32.3845 1.42903 33.2764L6.17426 35.3509L6.23112 35.7261C6.50906 37.5403 6.98788 39.328 7.65494 41.0398L7.79265 41.3936L4.72012 45.5627C5.13072 46.3549 5.58174 47.1344 6.06309 47.8873L11.2101 47.3112L11.4463 47.6069C12.5947 49.0408 13.9036 50.3497 15.3363 51.4968L15.6332 51.7343L15.0558 56.8813C15.8088 57.3626 16.5883 57.8124 17.3817 58.223L21.5508 55.1505L21.9045 55.2882C23.6139 55.9552 25.4028 56.4353 27.217 56.712L27.5923 56.7701L29.6667 61.5154ZM31.0084 54.2484C18.7057 54.2484 8.69596 44.2387 8.69596 31.9347C8.69596 19.632 18.7057 9.62097 31.0084 9.62097C43.3124 9.62097 53.3222 19.632 53.3222 31.9347C53.3222 44.2387 43.3124 54.2484 31.0084 54.2484ZM31.0084 10.9993C19.465 10.9993 10.073 20.3912 10.073 31.9347C10.073 43.4794 19.465 52.8713 31.0084 52.8713C42.5531 52.8713 51.9451 43.4794 51.9451 31.9347C51.9451 20.3912 42.5531 10.9993 31.0084 10.9993Z" fill="#A6A6A6"/>
</g>
<path d="M80.0238 48.9365H73.2738L85.5636 14.0274H93.3704L105.677 48.9365H98.9272L89.6033 21.1865H89.3306L80.0238 48.9365ZM80.2454 35.249H98.6545V40.3286H80.2454V35.249ZM113.239 14.0274V48.9365H106.915V14.0274H113.239ZM116.727 48.9365V14.0274H130.091C132.613 14.0274 134.71 14.4252 136.38 15.2206C138.062 16.0047 139.318 17.0786 140.148 18.4422C140.988 19.8058 141.409 21.3513 141.409 23.0786C141.409 24.499 141.136 25.7149 140.591 26.7263C140.045 27.7263 139.312 28.5388 138.392 29.1638C137.471 29.7888 136.443 30.2377 135.307 30.5104V30.8513C136.545 30.9195 137.733 31.3002 138.869 31.9933C140.017 32.6752 140.954 33.6411 141.682 34.8911C142.409 36.1411 142.773 37.6524 142.773 39.4252C142.773 41.232 142.335 42.857 141.46 44.3002C140.585 45.732 139.267 46.8627 137.505 47.6922C135.744 48.5218 133.528 48.9365 130.858 48.9365H116.727ZM123.051 43.6524H129.852C132.148 43.6524 133.801 43.2149 134.812 42.3399C135.835 41.4536 136.346 40.3172 136.346 38.9308C136.346 37.8968 136.091 36.9649 135.579 36.1354C135.068 35.2945 134.341 34.6354 133.398 34.1581C132.454 33.6695 131.329 33.4252 130.023 33.4252H123.051V43.6524ZM123.051 28.874H129.307C130.398 28.874 131.38 28.6752 132.255 28.2774C133.13 27.8683 133.818 27.2945 134.318 26.5558C134.829 25.8058 135.085 24.9195 135.085 23.8968C135.085 22.5445 134.608 21.4308 133.653 20.5558C132.71 19.6808 131.307 19.2433 129.443 19.2433H123.051V28.874ZM144.914 48.9365V14.0274H167.619V19.3286H151.238V28.8058H166.442V34.107H151.238V43.6354H167.755V48.9365H144.914Z" fill="white"/>
</svg>
