<svg width="113" height="42" viewBox="0 0 113 42" fill="none" xmlns="http://www.w3.org/2000/svg">
<circle cx="20.2649" cy="20.5139" r="15.2434" fill="white"/>
<path d="M30.1425 33.4015C30.1425 33.3776 30.239 33.2869 30.3561 33.2003C30.5507 33.0577 30.5548 33.0618 30.4023 33.244C30.2431 33.4353 30.1425 33.4955 30.1425 33.4015ZM28.0613 30.861C28.4274 30.513 28.754 30.2293 28.7878 30.2293C28.8216 30.2293 28.5495 30.513 28.1842 30.861C27.818 31.2081 27.4915 31.4926 27.4577 31.4926C27.4247 31.4926 27.696 31.2081 28.0613 30.861ZM19.4947 30.3002C19.4947 30.2763 19.5904 30.1865 19.7083 30.0999C19.9029 29.9564 19.907 29.9605 19.7544 30.1428C19.5945 30.3341 19.4947 30.3951 19.4947 30.3002ZM16.6367 25.1623C16.541 23.8924 15.9168 22.033 15.2159 20.9264C14.6297 20.0012 13.0984 18.5376 12.151 17.9975C10.4416 17.0236 8.02475 16.876 6.12656 17.6305L5.67139 17.8111L5.90969 17.2224C6.17108 16.5759 7.10699 15.0051 7.59184 14.3965C7.87797 14.0386 7.93569 14.0164 8.40323 14.084C10.0953 14.3281 13.533 15.7027 16.1898 17.1968C17.8859 18.15 20.2682 19.2442 21.3912 19.5856C23.3694 20.1867 25.8803 20.4168 27.9244 20.1851C29.0533 20.0573 28.8364 20.2379 26.7296 21.1828C21.9981 23.3045 19.6761 24.4358 18.3098 25.2843C17.4901 25.7931 16.7967 26.2095 16.7678 26.2095C16.7389 26.2095 16.6804 25.7387 16.6367 25.1623ZM33.5695 21.572C33.5695 21.5481 33.666 21.4582 33.7831 21.3708C33.9777 21.2282 33.9818 21.2323 33.8293 21.4145C33.6701 21.6058 33.5695 21.6669 33.5695 21.572Z" fill="#F4BB0D"/>
<path d="M8.03724 27.5902C7.25801 27.4039 6.45404 27.0221 5.97084 26.6098C5.74325 26.4152 5.52061 26.256 5.47609 26.256C5.43156 26.256 5.32519 25.9328 5.24025 25.5378C5.1545 25.1437 5.03741 24.6135 4.97969 24.3612C4.92197 24.108 4.86837 23.2043 4.86012 22.3508C4.8461 20.7041 5.02916 19.4854 5.43898 18.5107C5.65997 17.9863 5.72758 17.9269 6.33778 17.7299C7.62825 17.3134 8.40088 17.2153 9.5083 17.3291C11.009 17.4825 12.2913 18.0638 13.3443 19.0657C14.4542 20.1228 15.6869 20.7305 15.6333 22.4349C15.5937 23.666 14.5688 23.7229 14.0699 24.6671C13.2659 26.1876 12.1395 27.0526 10.365 27.5119C9.35987 27.7725 8.86842 27.7889 8.03724 27.5902ZM7.78822 26.256C7.79152 26.3096 5.91476 24.6217 8.0257 25.7629C8.49653 26.0169 8.0694 25.7893 8.10898 25.7102C8.15021 25.6269 8.09744 25.5667 7.98282 25.5667C7.87397 25.5667 7.73957 25.4513 7.6835 25.3103L7.5829 25.0538L8.66393 26.068C8.77277 26.1695 7.33057 25.5667 7.2341 25.5667C7.0329 25.5667 7.06258 25.4562 7.24482 25.5617C7.31161 25.6013 7.30336 26.0309 7.30336 26.1604C7.30336 26.3278 7.14009 25.7728 7.2778 25.7234C7.38417 25.6846 7.7676 25.8734 7.77008 25.927L7.78822 26.256ZM9.60477 25.1462C9.78124 24.9804 10.4137 24.9499 10.2414 25.0497C10.0657 25.1511 9.8002 25.0926 9.92142 25.0926C9.97749 25.0926 9.52397 25.222 9.60477 25.1462ZM11.1385 25.1734C11.1748 25.0835 10.9579 24.9573 11.0428 24.8831C11.2861 24.6695 11.437 24.4931 11.3801 24.6324C11.2985 24.832 11.2968 24.16 11.4617 24.16C11.5178 24.16 11.1014 25.2632 11.1385 25.1734ZM10.0047 24.5013C9.98986 24.3645 10.2875 24.3273 10.2348 24.4749C10.2075 24.5508 9.78618 24.6564 9.86699 24.6308C9.9478 24.6052 10.0096 24.5475 10.0047 24.5013ZM11.1517 24.1789C11.1129 24.1187 11.028 24.1006 10.9645 24.1377C10.901 24.174 10.8804 24.089 10.92 24.1492C10.9596 24.2086 10.9439 24.0726 11.0074 24.0354C11.0709 23.9983 11.1913 24.2391 11.1517 24.1789ZM8.43222 23.9447C8.52292 23.8079 9.17764 23.8079 9.01437 23.9027C8.87749 23.9818 8.83049 24.0157 9.002 24.0157C9.06137 24.0157 8.39346 24.0033 8.43222 23.9447ZM6.12751 23.7773C6.28665 23.3865 6.10854 23.262 5.72016 23.4929C5.57421 23.5795 6.22893 23.0435 6.36169 23.1935C6.56454 23.4236 6.0335 24.0074 6.12751 23.7773ZM11.3537 22.6452C11.3875 22.7367 8.80081 25.1519 10.1234 22.9223C10.2034 22.7879 9.6122 24.1261 9.41677 24.1261C9.27824 24.1261 10.586 22.9247 10.5126 22.7821C10.4129 22.5875 11.3265 23.8944 11.3207 24.0396C11.3158 24.1459 10.8697 24.2309 10.7526 24.3414C10.5992 24.4848 9.97914 23.3222 10.0888 23.356C10.1721 23.3824 10.8153 23.1045 10.8153 23.2504C10.8153 23.4937 10.2925 23.972 10.5456 23.8046C10.7031 23.7007 11.014 21.7274 11.3537 22.6452ZM12.8108 21.0133C12.8108 20.8509 12.9336 21.6211 12.5452 21.687C12.1981 21.7456 11.7569 21.0521 12.0967 21.3102C12.3391 21.4941 12.382 21.4957 12.5865 21.3316C12.7102 21.2327 12.8108 21.0892 12.8108 21.0133ZM9.3508 20.2053C7.79976 20.3463 8.19144 20.4493 8.10733 20.3751C7.98199 20.2638 9.0152 19.8606 8.89976 19.99C8.81812 20.0832 8.78349 19.4236 8.82307 19.4837C8.91377 19.6215 9.5149 20.1904 9.3508 20.2053Z" fill="#0357B9"/>
<path d="M17.3525 36.1932C16.1305 35.9928 15.019 35.6852 14.9076 35.5162C14.8747 35.4675 15.1319 35.0453 15.4782 34.5795C18.0575 31.108 21.5991 28.3332 27.2665 25.3425C29.7971 24.0066 31.7555 22.8745 32.8638 22.1068C33.8648 21.4125 35.65 19.7666 35.65 19.5374C35.65 19.4805 35.7952 19.5226 35.8166 19.4335C35.9642 18.8225 36.012 19.6058 36.0598 20.0371C36.1547 20.8774 36.1555 23.5968 36.0434 23.7617C35.9931 23.8368 35.1817 24.2961 34.24 24.7834C31.3333 26.2883 28.2007 28.3827 26.3702 30.0442C24.4571 31.78 22.7684 34.1284 22.2538 35.7677C22.1087 36.2286 22.0658 36.2641 21.562 36.3391C20.6558 36.4743 18.6413 36.4043 17.3525 36.1932ZM24.6905 35.771C24.848 35.1666 25.7468 33.378 26.4213 32.5394C28.0944 30.459 30.893 27.8393 34.4461 26.332L35.5552 25.8611L35.4711 26.1786C35.3045 26.8086 34.6605 28.1955 34.1608 29.0036C32.7318 31.31 30.5393 33.5281 28.1826 34.765C27.5271 35.1088 24.8455 36.0868 24.6715 36.0868C24.6369 36.0868 24.6451 35.9441 24.6905 35.771Z" fill="#BF2816"/>
<path d="M8.68783 31.5114C7.44601 30.1665 6.90921 29.4599 6.40539 28.5058C5.83807 27.433 5.36889 26.3339 5.4464 26.2613C5.47856 26.2308 5.69212 26.3644 5.92136 26.5582C6.50269 27.0496 7.34541 27.419 8.28791 27.5947C8.99376 27.7266 9.20073 27.72 10.003 27.5427C11.9466 27.1123 13.1769 26.2192 14.0179 24.6278C14.5209 23.6754 14.5391 23.6037 14.5778 22.3717C14.6125 21.2891 14.5787 20.9996 14.3544 20.4373C13.9685 19.4692 12.711 18.4443 11.39 17.8736C10.6635 17.5595 10.4071 17.3352 10.5778 17.3649C12.0225 17.6131 14.4583 19.4445 15.409 21.0038C16.0596 22.0708 16.5527 23.9805 16.6343 25.1984L16.7399 26.2498L15.8056 26.9135C14.1367 28.0977 12.189 29.7518 10.8491 31.0868L9.51984 32.4119L8.68783 31.5114ZM23.9723 18.8541C21.9125 18.5514 20.0168 17.8209 16.899 16.1305C15.7347 15.4997 14.4344 14.8194 14.0089 14.619C13.0251 14.1548 10.4673 13.1958 9.55035 12.9468C9.1628 12.842 8.84615 12.7175 8.84615 12.6713C8.84615 12.4875 11.2078 10.4714 11.5054 10.4013C11.9301 10.3015 13.2288 10.6998 14.9118 11.446C16.227 12.029 16.8083 12.3308 18.5672 13.3442C19.6729 13.9816 21.83 14.9967 22.8237 15.3471C24.5248 15.9482 27.0521 16.1668 28.8654 15.8683C29.9233 15.6951 31.4373 15.1113 32.3204 14.5366C32.7451 14.2611 33.1301 14.0369 33.1771 14.0377C33.281 14.041 34.3035 15.484 34.3035 15.6267C34.3035 15.7305 33.4369 16.5032 32.7055 17.0499C32.0029 17.5751 30.1435 18.3791 29.041 18.6339C27.8487 18.9101 25.1449 19.0272 23.9723 18.8541ZM5.71686 17.7838C5.76963 17.6782 6.74677 17.4152 6.84407 17.3863C7.44107 17.2074 7.09062 17.5207 6.91993 17.5735C6.30644 17.764 5.54782 18.121 5.71686 17.7838ZM7.50043 17.2511C7.6736 17.2222 7.94406 17.1604 8.11228 17.1612C8.38686 17.1637 8.9484 17.3006 8.64578 17.2882C8.43881 17.2791 6.82263 17.5776 6.41363 17.6617C6.22563 17.6997 6.36333 17.4424 7.50043 17.2511ZM8.29203 17.1967L8.19226 17.1727L8.8074 17.1587C9.11002 17.1563 9.80762 17.2033 10.0088 17.2511C10.3312 17.3286 11.2086 17.4209 10.9488 17.6362C9.63693 17.2132 8.21865 17.294 8.55755 17.2791L8.29203 17.1967ZM25.4302 14.6C24.4728 14.5135 22.6876 13.9882 21.6 13.4728C21.2058 13.2865 20.0885 12.6837 19.118 12.1337C17.2173 11.0576 15.7793 10.3501 14.1961 9.71439C13.6469 9.49423 13.1736 9.29138 13.1447 9.26417C13.0152 9.14213 15.569 8.13779 16.6475 7.88546C18.4179 7.47235 18.3981 7.46822 19.508 8.4635C21.4804 10.2322 23.6804 11.498 25.4953 11.9086C25.9307 12.0076 26.8377 12.118 27.5114 12.1543C28.6873 12.2186 28.952 12.1881 30.8353 11.7742C31.0274 11.7313 31.255 11.8492 31.6616 12.2013C31.9708 12.4685 32.2231 12.753 32.2231 12.8346C32.2231 12.9162 32.0442 13.0861 31.8256 13.2114C29.8673 14.3354 27.7019 14.8062 25.4302 14.6ZM26.3479 10.7402C24.6691 10.4771 22.8707 9.53875 21.4524 8.18644L20.9016 7.66118L21.5142 7.62325C22.8097 7.54326 24.7985 8.00173 26.672 8.81394C28.0029 9.39115 29.6751 10.3559 29.6182 10.5151C29.5927 10.5876 29.4104 10.68 29.2142 10.7204C28.8167 10.8012 26.8237 10.8152 26.3479 10.7402Z" fill="#0A841A"/>
<path d="M30.1425 32.7531C30.1425 32.7292 30.239 32.6385 30.3561 32.5519C30.5507 32.4092 30.5548 32.4133 30.4023 32.5956C30.2431 32.7869 30.1425 32.8471 30.1425 32.7531ZM28.0613 30.2125C28.4274 29.8646 28.754 29.5809 28.7878 29.5809C28.8216 29.5809 28.5495 29.8646 28.1842 30.2125C27.818 30.5597 27.4915 30.8442 27.4577 30.8442C27.4247 30.8442 27.696 30.5597 28.0613 30.2125ZM19.4947 29.6518C19.4947 29.6279 19.5904 29.538 19.7083 29.4514C19.9029 29.308 19.907 29.3121 19.7544 29.4943C19.5945 29.6856 19.4947 29.7466 19.4947 29.6518ZM16.6367 24.5138C16.541 23.244 15.9168 21.3845 15.2159 20.2779C14.6297 19.3528 13.0984 17.8891 12.151 17.349C10.4416 16.3752 8.02475 16.2276 6.12656 16.9821L5.67139 17.1627L5.90969 16.5731C6.17108 15.9274 7.10699 14.3566 7.59184 13.7481C7.87797 13.3902 7.93569 13.3679 8.40323 13.4356C10.0953 13.6796 13.533 15.0542 16.1898 16.5484C17.8859 17.5016 20.2682 18.5958 21.3912 18.9372C23.3694 19.5383 25.8803 19.7684 27.9244 19.5366C29.0533 19.4088 28.8364 19.5894 26.7296 20.5344C21.9981 22.656 19.6761 23.7874 18.3098 24.635C17.4901 25.1446 16.7967 25.5611 16.7678 25.5611C16.7389 25.5611 16.6804 25.0902 16.6367 24.5138ZM33.5695 20.9236C33.5695 20.8997 33.666 20.8098 33.7831 20.7224C33.9777 20.5797 33.9818 20.5839 33.8293 20.7661C33.6701 20.9574 33.5695 21.0184 33.5695 20.9236Z" fill="#F4BB0D"/>
<path d="M8.03724 26.9418C7.25801 26.7554 6.45404 26.3736 5.97084 25.9614C5.74325 25.7668 5.52061 25.6076 5.47609 25.6076C5.43156 25.6076 5.32519 25.2844 5.24025 24.8894C5.1545 24.4952 5.03741 23.965 4.97969 23.7127C4.92197 23.4596 4.86837 22.555 4.86012 21.7024C4.8461 20.0557 5.02916 18.837 5.43898 17.8623C5.65997 17.3379 5.72758 17.2785 6.33778 17.0814C7.62825 16.665 8.40088 16.5669 9.5083 16.6807C11.009 16.834 12.2913 17.4154 13.3443 18.4172C14.4542 19.4744 15.6869 20.0821 15.6333 21.7865C15.5937 23.0176 14.5688 23.0745 14.0699 24.0178C13.2659 25.5392 12.1395 26.4042 10.365 26.8635C9.35987 27.124 8.86842 27.1405 8.03724 26.9418ZM7.78822 25.6076C7.79152 25.6612 5.91476 23.9733 8.0257 25.1145C8.49653 25.3685 8.0694 25.1409 8.10898 25.0617C8.15021 24.9785 8.09744 24.9183 7.98282 24.9183C7.87397 24.9183 7.73957 24.8028 7.6835 24.6618L7.5829 24.4054L8.66393 25.4196C8.77277 25.521 7.33057 24.9183 7.2341 24.9183C7.0329 24.9183 7.06258 24.8078 7.24482 24.9133C7.31161 24.9521 7.30336 25.3825 7.30336 25.512C7.30336 25.6793 7.14009 25.1244 7.2778 25.0749C7.38417 25.0362 7.7676 25.225 7.77008 25.2786L7.78822 25.6076ZM9.60477 24.4977C9.78124 24.332 10.4137 24.3015 10.2414 24.4012C10.0657 24.5027 9.8002 24.4441 9.92142 24.4441C9.97749 24.4441 9.52397 24.5736 9.60477 24.4977ZM11.1385 24.5249C11.1748 24.4351 10.9579 24.3089 11.0428 24.2347C11.2861 24.0211 11.437 23.8447 11.3801 23.984C11.2985 24.1836 11.2968 23.5115 11.4617 23.5115C11.5178 23.5115 11.1014 24.6148 11.1385 24.5249ZM10.0047 23.8529C9.98986 23.716 10.2875 23.6789 10.2348 23.8265C10.2075 23.9024 9.78618 24.0079 9.86699 23.9824C9.9478 23.9568 10.0096 23.8991 10.0047 23.8529ZM11.1517 23.5305C11.1129 23.4703 11.028 23.4521 10.9645 23.4884C10.901 23.5255 10.8804 23.4406 10.92 23.5008C10.9596 23.5602 10.9439 23.4241 11.0074 23.387C11.0709 23.3499 11.1913 23.5899 11.1517 23.5305ZM8.43222 23.2963C8.52292 23.1586 9.17764 23.1594 9.01437 23.2542C8.87749 23.3334 8.83049 23.3664 9.002 23.3664C9.06137 23.3664 8.39346 23.3548 8.43222 23.2963ZM6.12751 23.1289C6.28665 22.7381 6.10854 22.6135 5.72016 22.8444C5.57421 22.9302 6.22893 22.395 6.36169 22.5451C6.56454 22.7752 6.0335 23.359 6.12751 23.1289ZM11.3537 21.9968C11.3875 22.0883 8.80081 24.5035 10.1234 22.2738C10.2034 22.1394 9.6122 23.4777 9.41677 23.4777C9.27824 23.4777 10.586 22.2763 10.5126 22.1336C10.4129 21.939 11.3265 23.246 11.3207 23.3911C11.3158 23.4967 10.8697 23.5824 10.7526 23.6921C10.5992 23.8364 9.97914 22.6737 10.0888 22.7076C10.1721 22.7339 10.8153 22.4552 10.8153 22.602C10.8153 22.8453 10.2925 23.3235 10.5456 23.1561C10.7031 23.0522 11.014 21.079 11.3537 21.9968ZM12.8108 20.3649C12.8108 20.2025 12.9336 20.9726 12.5452 21.0386C12.1981 21.0971 11.7569 20.4028 12.0967 20.6618C12.3391 20.8456 12.382 20.8473 12.5865 20.6832C12.7102 20.5842 12.8108 20.4408 12.8108 20.3649ZM9.3508 19.5568C7.79976 19.6978 8.19144 19.8009 8.10733 19.7267C7.98199 19.6154 9.0152 19.2113 8.89976 19.3416C8.81812 19.4348 8.78349 18.7751 8.82307 18.8353C8.91377 18.973 9.5149 19.5412 9.3508 19.5568Z" fill="#0357B9"/>
<path d="M17.3525 35.5428C16.1305 35.3424 15.019 35.0348 14.9076 34.8658C14.8747 34.8171 15.1319 34.395 15.4782 33.9291C18.0575 30.4576 21.5991 27.6828 27.2665 24.6921C29.7971 23.3563 31.7555 22.2241 32.8638 21.4564C33.8648 20.7621 35.65 19.1162 35.65 18.887C35.65 18.8301 35.7952 18.8722 35.8166 18.7831C35.9642 18.1721 36.012 18.9555 36.0598 19.3867C36.1547 20.227 36.1555 22.9464 36.0434 23.1114C35.9931 23.1864 35.1817 23.6457 34.24 24.133C31.3333 25.6379 28.2007 27.7315 26.3702 29.3939C24.4571 31.1296 22.7684 33.478 22.2538 35.1173C22.1087 35.5782 22.0658 35.6137 21.562 35.6887C20.6558 35.824 18.6413 35.7539 17.3525 35.5428ZM24.6905 35.1206C24.848 34.5162 25.7468 32.7276 26.4213 31.889C28.0944 29.8078 30.893 27.1889 34.4461 25.6816L35.5552 25.2099L35.4711 25.5282C35.3045 26.1582 34.6605 27.5451 34.1608 28.3532C32.7318 30.6596 30.5393 32.8777 28.1826 34.1138C27.5271 34.4584 24.8455 35.4364 24.6715 35.4364C24.6369 35.4364 24.6451 35.2937 24.6905 35.1206Z" fill="#BF2816"/>
<path d="M8.68783 30.862C7.44601 29.5171 6.90921 28.8104 6.40539 27.8564C5.83807 26.7836 5.36889 25.6845 5.4464 25.6111C5.47856 25.5814 5.69212 25.715 5.92136 25.9087C6.50269 26.4002 7.34541 26.7696 8.28791 26.9452C8.99376 27.0772 9.20073 27.0706 10.003 26.8933C11.9466 26.4629 13.1769 25.5698 14.0179 23.9784C14.5209 23.026 14.5391 22.9543 14.5778 21.7223C14.6125 20.6388 14.5787 20.3502 14.3544 19.7879C13.9685 18.8198 12.711 17.7948 11.39 17.2242C10.6635 16.9101 10.4071 16.6858 10.5778 16.7146C12.0225 16.9637 14.4583 18.7951 15.409 20.3535C16.0596 21.4214 16.5527 23.3311 16.6343 24.549L16.7399 25.6003L15.8056 26.2633C14.1367 27.4482 12.189 29.1024 10.8491 30.4374L9.51984 31.7625L8.68783 30.862ZM23.9723 18.2047C21.9125 17.9012 20.0168 17.1715 16.899 15.4811C15.7347 14.8503 14.4344 14.17 14.0089 13.9688C13.0251 13.5054 10.4673 12.5464 9.55035 12.2973C9.1628 12.1926 8.84615 12.0681 8.84615 12.0219C8.84615 11.838 11.2078 9.82194 11.5054 9.75185C11.9301 9.65125 13.2288 10.0504 14.9118 10.7966C16.227 11.3796 16.8083 11.6814 18.5672 12.6948C19.6729 13.3322 21.83 14.3473 22.8237 14.6977C24.5248 15.2988 27.0521 15.5173 28.8654 15.2188C29.9233 15.0457 31.4373 14.4619 32.3204 13.8871C32.7451 13.6117 33.1301 13.3874 33.1771 13.3883C33.281 13.3916 34.3035 14.8346 34.3035 14.9772C34.3035 15.0811 33.4369 15.8538 32.7055 16.4005C32.0029 16.9257 30.1435 17.7297 29.041 17.9845C27.8487 18.2599 25.1449 18.3778 23.9723 18.2047ZM5.71686 17.1343C5.76963 17.0288 6.74677 16.7658 6.84407 16.7361C7.44107 16.5571 7.09062 16.8705 6.91993 16.9241C6.30644 17.1146 5.54782 17.4716 5.71686 17.1343ZM7.50043 16.6017C7.6736 16.5728 7.94406 16.511 8.11228 16.5118C8.38686 16.5143 8.9484 16.6511 8.64578 16.6388C8.43881 16.6297 6.82263 16.9282 6.41363 17.0123C6.22563 17.0502 6.36333 16.793 7.50043 16.6017ZM8.29203 16.5472L8.19226 16.5233L8.8074 16.5093C9.11002 16.5068 9.80762 16.5538 10.0088 16.6017C10.3312 16.6784 11.2086 16.7715 10.9488 16.9867C9.63693 16.5637 8.21865 16.6445 8.55755 16.6289L8.29203 16.5472ZM25.4302 13.9506C24.4728 13.8641 22.6876 13.3388 21.6 12.8234C21.2058 12.6371 20.0885 12.0343 19.118 11.4843C17.2173 10.4082 15.7793 9.70073 14.1961 9.06498C13.6469 8.84481 13.1736 8.64196 13.1447 8.61475C13.0152 8.49271 15.569 7.48837 16.6475 7.23605C18.4179 6.82293 18.3981 6.81881 19.508 7.81408C21.4804 9.58281 23.6804 10.8485 25.4953 11.2592C25.9307 11.3581 26.8377 11.4686 27.5114 11.5049C28.6873 11.5692 28.952 11.5387 30.8353 11.1248C31.0274 11.0819 31.255 11.1998 31.6616 11.5519C31.9708 11.8191 32.2231 12.1036 32.2231 12.1852C32.2231 12.2668 32.0442 12.4367 31.8256 12.562C29.8673 13.6859 27.7019 14.156 25.4302 13.9506ZM26.3479 10.0908C24.6691 9.82771 22.8707 8.88934 21.4524 7.53702L20.9016 7.01176L21.5142 6.97383C22.8097 6.89385 24.7985 7.35232 26.672 8.16453C28.0029 8.74174 29.6751 9.7065 29.6182 9.86565C29.5927 9.93821 29.4104 10.0306 29.2142 10.071C28.8167 10.1518 26.8237 10.1658 26.3479 10.0908Z" fill="#0A841A"/>
<mask id="mask0_2209_135" style="mask-type:luminance" maskUnits="userSpaceOnUse" x="0" y="0" width="41" height="42">
<path d="M0 0.753906H40.5299V41.2467H0V0.753906Z" fill="white"/>
</mask>
<g mask="url(#mask0_2209_135)">
<path fill-rule="evenodd" clip-rule="evenodd" d="M20.2395 6.55806C28.2058 6.55806 34.6738 13.0261 34.6738 20.9924C34.6738 28.9587 28.2058 35.4267 20.2395 35.4267C12.2723 35.4267 5.80431 28.9587 5.80431 20.9924C5.80431 13.0261 12.2723 6.55806 20.2395 6.55806ZM21.4425 0.802471C20.641 0.754645 19.8371 0.754645 19.0356 0.802471L17.6387 3.99856C16.392 4.18903 15.1699 4.51722 13.9941 4.97486L11.1864 2.90598C10.4682 3.2655 9.7722 3.66707 9.10182 4.10987L9.4902 7.5756C8.50564 8.3639 7.61097 9.25857 6.82184 10.2431L3.35612 9.85557C2.91414 10.526 2.51175 11.2219 2.15223 11.9401L4.22193 14.747C3.76346 15.9229 3.4361 17.1449 3.24563 18.3917L0.0495412 19.7885C0.00171544 20.5908 0.00171544 21.394 0.0495412 22.1963L3.24563 23.5931C3.4361 24.8399 3.76346 26.0619 4.22193 27.237L2.15223 30.0447C2.51175 30.7629 2.91414 31.4588 3.35612 32.1292L6.82267 31.7417C7.61097 32.7254 8.50564 33.6209 9.4902 34.4092L9.10182 37.8749C9.7722 38.3177 10.469 38.7193 11.1872 39.0788L13.9941 37.0099C15.1699 37.4676 16.392 37.7949 17.6387 37.9862L19.0356 41.1815C19.8371 41.2301 20.641 41.2301 21.4425 41.1815L22.8394 37.9862C24.087 37.7949 25.309 37.4676 26.484 37.0099L29.2917 39.0788C30.01 38.7193 30.7059 38.3177 31.3763 37.8749L30.9879 34.4092C31.9725 33.6201 32.8671 32.7254 33.6563 31.7417L37.122 32.1292C37.564 31.4588 37.9664 30.7629 38.3259 30.0447L36.2562 27.237C36.7146 26.0619 37.042 24.8399 37.2333 23.5931L40.4286 22.1963C40.4764 21.394 40.4764 20.5908 40.4286 19.7885L37.2333 18.3925C37.042 17.1449 36.7146 15.9229 36.2562 14.7478L38.3259 11.9401C37.9664 11.2219 37.564 10.526 37.122 9.85557L33.6563 10.2439C32.8671 9.2594 31.9725 8.36472 30.9879 7.5756L31.3763 4.10987C30.7059 3.66707 30.01 3.2655 29.2917 2.90598L26.484 4.97569C25.309 4.51722 24.087 4.18986 22.8394 3.99856L21.4425 0.802471Z" fill="white"/>
<path d="M20.2386 41.2248C19.8395 41.2248 19.4338 41.2132 19.0356 41.1893L18.7602 41.1728L17.3823 38.0204C16.2988 37.839 15.2318 37.5529 14.2019 37.1686L11.4329 39.2095L11.1864 39.0858C10.4714 38.7287 9.76973 38.3231 9.10182 37.8819L8.87176 37.731L9.25519 34.3123C8.40752 33.613 7.62581 32.8313 6.92657 31.9837L3.50784 32.3663L3.35612 32.137C2.91497 31.4683 2.5101 30.7666 2.15223 30.0517L2.02937 29.8059L4.07021 27.0362C3.68595 26.0063 3.39982 24.9384 3.21759 23.8557L0.0660328 22.4779L0.0495412 22.2033C0.00171544 21.4043 0.00171544 20.5945 0.0495412 19.7955L0.0660328 19.5209L3.21759 18.143C3.39982 17.0603 3.68595 15.9925 4.07021 14.9626L2.02937 12.1928L2.15223 11.9471C2.5101 11.2322 2.91497 10.5305 3.35612 9.86256L3.50784 9.6325L6.92657 10.0151C7.62581 9.16744 8.40752 8.38656 9.25519 7.68731L8.87176 4.26776L9.10182 4.11604C9.77138 3.67571 10.4723 3.27002 11.1864 2.91297L11.4329 2.79011L14.2019 4.83095C15.2318 4.4467 16.2988 4.16057 17.3831 3.97833L18.761 0.82595L19.0356 0.810283C19.8329 0.762458 20.6452 0.762458 21.4425 0.810283L21.7179 0.82595L23.0958 3.97833C24.1793 4.16057 25.2472 4.4467 26.2762 4.83095L29.0452 2.79011L29.2917 2.91297C30.0058 3.27002 30.7075 3.67489 31.3763 4.11604L31.6063 4.26776L31.2229 7.68731C32.0706 8.38656 32.8523 9.16744 33.5515 10.0151L36.9703 9.6325L37.122 9.86256C37.5631 10.5305 37.968 11.2322 38.3259 11.9471L38.4487 12.1928L36.4079 14.9626C36.7921 15.9917 37.0783 17.0595 37.2605 18.143L40.4129 19.5209L40.4286 19.7955C40.4764 20.5945 40.4764 21.4043 40.4286 22.2033L40.4129 22.4779L37.2605 23.8557C37.0783 24.9392 36.7921 26.0071 36.4079 27.037L38.4487 29.8059L38.3259 30.0517C37.968 30.7674 37.5631 31.4683 37.122 32.137L36.9703 32.3663L33.5515 31.9837C32.8523 32.8313 32.0706 33.613 31.2229 34.3123L31.6063 37.731L31.3763 37.8819C30.7075 38.3239 30.0067 38.7287 29.2917 39.0866L29.0452 39.2095L26.2762 37.1686C25.2472 37.5529 24.1793 37.839 23.0958 38.0204L21.7179 41.1728L21.4425 41.1893C21.0434 41.2132 20.6386 41.2248 20.2386 41.2248ZM19.3629 40.3062C19.9467 40.3326 20.5314 40.3326 21.1152 40.3062L22.4691 37.209L22.7132 37.1719C23.8981 36.9905 25.0649 36.6772 26.1814 36.2418L26.4123 36.1519L29.1334 38.1573C29.6504 37.8893 30.1592 37.5958 30.6515 37.2816L30.2746 33.9223L30.4684 33.7672C31.4035 33.0185 32.2578 32.1642 33.0073 31.2283L33.1615 31.0354L36.5209 31.4114C36.835 30.9199 37.1286 30.4112 37.3974 29.8942L35.392 27.173L35.4819 26.9422C35.9173 25.8257 36.2298 24.6589 36.4112 23.474L36.4483 23.2291L39.5454 21.8759C39.5718 21.2929 39.5718 20.7058 39.5454 20.1229L36.4483 18.7697L36.4112 18.5248C36.2298 17.3399 35.9173 16.1731 35.4819 15.0566L35.392 14.8257L37.3974 12.1046C37.1286 11.5876 36.835 11.0788 36.5209 10.5874L33.1615 10.9634L33.0073 10.7704C32.2578 9.83452 31.4035 8.98108 30.4684 8.23153L30.2746 8.07651L30.6515 4.71716C30.1592 4.40299 29.6504 4.10944 29.1334 3.84145L26.4123 5.84684L26.1814 5.75696C25.0649 5.32158 23.8981 5.00906 22.7132 4.82765L22.4691 4.79055L21.1152 1.69259C20.5314 1.66703 19.9467 1.66703 19.3629 1.69259L18.009 4.79055L17.7641 4.82765C16.5791 5.00906 15.4124 5.32158 14.2959 5.75696L14.0658 5.84684L11.3447 3.84145C10.8277 4.10944 10.3189 4.40299 9.82663 4.71716L10.2035 8.07651L10.0097 8.23153C9.0746 8.98026 8.22034 9.83452 7.47079 10.7704L7.31659 10.9634L3.95724 10.5874C3.64308 11.0788 3.3487 11.5876 3.08071 12.1046L5.0861 14.8257L4.99622 15.0566C4.56084 16.1739 4.24832 17.3407 4.06691 18.5248L4.0298 18.7697L0.93267 20.1229C0.906283 20.7058 0.906283 21.2929 0.93267 21.8751L4.0298 23.2291L4.06691 23.474C4.24832 24.6581 4.56084 25.8248 4.99622 26.9422L5.0861 27.173L3.08071 29.8942C3.3487 30.4112 3.64308 30.9199 3.95724 31.4114L7.31659 31.0354L7.47079 31.2283C8.22034 32.1642 9.0746 33.0185 10.0097 33.7672L10.2035 33.9223L9.82663 37.2816C10.3181 37.5958 10.8268 37.8893 11.3447 38.1573L14.0658 36.1519L14.2967 36.2418C15.4124 36.6772 16.58 36.9905 17.7641 37.1711L18.009 37.209L19.3629 40.3062ZM20.2386 35.5632C12.2088 35.5632 5.67567 29.03 5.67567 20.9994C5.67567 12.9696 12.2088 6.43559 20.2386 6.43559C28.2693 6.43559 34.8024 12.9696 34.8024 20.9994C34.8024 29.03 28.2693 35.5632 20.2386 35.5632ZM20.2386 7.33521C12.7044 7.33521 6.57447 13.4652 6.57447 20.9994C6.57447 28.5344 12.7044 34.6644 20.2386 34.6644C27.7737 34.6644 33.9036 28.5344 33.9036 20.9994C33.9036 13.4652 27.7737 7.33521 20.2386 7.33521Z" fill="#A6A6A6"/>
</g>
<path d="M52.2299 32H47.8243L55.8456 9.21543H60.941L68.9734 32H64.5678L58.4823 13.888H58.3043L52.2299 32ZM52.3745 23.0664H64.3898V26.3817H52.3745V23.0664ZM73.9089 9.21543V32H69.7815V9.21543H73.9089ZM76.1855 32V9.21543H84.9077C86.5543 9.21543 87.9227 9.47502 89.013 9.9942C90.1106 10.506 90.9302 11.2069 91.4716 12.0969C92.0205 12.9869 92.2949 13.9956 92.2949 15.123C92.2949 16.0501 92.1169 16.8437 91.7609 17.5038C91.4049 18.1564 90.9265 18.6868 90.3257 19.0947C89.725 19.5026 89.0537 19.7956 88.3121 19.9736V20.1961C89.1205 20.2406 89.8956 20.489 90.6372 20.9415C91.3863 21.3865 91.9982 22.0169 92.4729 22.8328C92.9476 23.6486 93.1849 24.6351 93.1849 25.7921C93.1849 26.9714 92.8994 28.032 92.3283 28.9739C91.7572 29.9084 90.8968 30.6464 89.7472 31.1879C88.5976 31.7293 87.1513 32 85.4084 32H76.1855ZM80.313 28.5512H84.752C86.2502 28.5512 87.3293 28.2656 87.9894 27.6945C88.6569 27.116 88.9907 26.3743 88.9907 25.4695C88.9907 24.7945 88.8238 24.1863 88.4901 23.6449C88.1563 23.0961 87.6816 22.6659 87.066 22.3544C86.4504 22.0355 85.7162 21.876 84.8632 21.876H80.313V28.5512ZM80.313 18.9055H84.396C85.108 18.9055 85.7495 18.7758 86.3206 18.5162C86.8917 18.2492 87.3405 17.8746 87.6668 17.3925C88.0006 16.903 88.1674 16.3245 88.1674 15.657C88.1674 14.7744 87.8559 14.0475 87.2329 13.4764C86.6173 12.9053 85.7013 12.6198 84.485 12.6198H80.313V18.9055ZM94.5826 32V9.21543H109.401V12.6754H98.7101V18.861H108.634V22.321H98.7101V28.54H109.49V32H94.5826Z" fill="#122368"/>
</svg>
